<mxfile host="app.diagrams.net" agent="Mozilla/5.0 (Windows NT 10.0; Win64; x64; rv:133.0) Gecko/20100101 Firefox/133.0" version="25.0.1" pages="6">
  <diagram name="useradmi" id="74e2e168-ea6b-b213-b513-2b3c1d86103e">
    <mxGraphModel dx="1760" dy="900" grid="1" gridSize="10" guides="1" tooltips="1" connect="1" arrows="1" fold="1" page="1" pageScale="1" pageWidth="1100" pageHeight="850" background="none" math="0" shadow="0">
      <root>
        <mxCell id="0" />
        <mxCell id="1" parent="0" />
        <mxCell id="tzNbkEb7s-4a03CU0OmQ-1" value="&lt;font style=&quot;font-size: 9px;&quot;&gt;&lt;b style=&quot;mso-bidi-font-weight:normal&quot;&gt;&lt;i style=&quot;mso-bidi-font-style:normal&quot;&gt;&lt;span style=&quot;font-family: &amp;quot;Times New Roman&amp;quot;, serif;&quot;&gt;Activity Diagram &lt;/span&gt;&lt;/i&gt;&lt;span style=&quot;line-height: 150%; font-family: &amp;quot;Times New Roman&amp;quot;, serif;&quot;&gt;Mengelola User Admin&lt;/span&gt;&lt;/b&gt;&lt;/font&gt;" style="swimlane;html=1;childLayout=stackLayout;startSize=20;rounded=0;shadow=0;labelBackgroundColor=none;strokeWidth=1;fontFamily=Verdana;fontSize=8;align=center;" parent="1" vertex="1">
          <mxGeometry x="40" y="70" width="480" height="720" as="geometry" />
        </mxCell>
        <mxCell id="tzNbkEb7s-4a03CU0OmQ-2" value="Admin" style="swimlane;html=1;startSize=20;" parent="tzNbkEb7s-4a03CU0OmQ-1" vertex="1">
          <mxGeometry y="20" width="220" height="700" as="geometry" />
        </mxCell>
        <mxCell id="tzNbkEb7s-4a03CU0OmQ-5" value="&lt;font style=&quot;font-size: 10px;&quot;&gt;Pilih Menu user&lt;/font&gt;" style="rounded=1;whiteSpace=wrap;html=1;fontSize=10;" parent="tzNbkEb7s-4a03CU0OmQ-2" vertex="1">
          <mxGeometry x="60" y="110" width="100" height="30" as="geometry" />
        </mxCell>
        <mxCell id="j7Imx5QuWKuZkJdwB4s6-10" style="edgeStyle=orthogonalEdgeStyle;rounded=0;orthogonalLoop=1;jettySize=auto;html=1;" parent="tzNbkEb7s-4a03CU0OmQ-2" source="tzNbkEb7s-4a03CU0OmQ-6" edge="1">
          <mxGeometry relative="1" as="geometry">
            <mxPoint x="110" y="240" as="targetPoint" />
          </mxGeometry>
        </mxCell>
        <mxCell id="tzNbkEb7s-4a03CU0OmQ-6" value="&lt;div style=&quot;font-size: 10px;&quot;&gt;&lt;font style=&quot;font-size: 10px;&quot;&gt;Melihat halaman&lt;/font&gt;&lt;/div&gt;&lt;div style=&quot;font-size: 10px;&quot;&gt;&lt;font style=&quot;font-size: 10px;&quot;&gt;User&lt;/font&gt;&lt;/div&gt;" style="rounded=1;whiteSpace=wrap;html=1;fontSize=10;" parent="tzNbkEb7s-4a03CU0OmQ-2" vertex="1">
          <mxGeometry x="60" y="180" width="100" height="30" as="geometry" />
        </mxCell>
        <mxCell id="tzNbkEb7s-4a03CU0OmQ-8" style="edgeStyle=orthogonalEdgeStyle;rounded=0;orthogonalLoop=1;jettySize=auto;html=1;" parent="tzNbkEb7s-4a03CU0OmQ-2" source="tzNbkEb7s-4a03CU0OmQ-9" target="tzNbkEb7s-4a03CU0OmQ-13" edge="1">
          <mxGeometry relative="1" as="geometry">
            <Array as="points">
              <mxPoint x="35" y="330" />
              <mxPoint x="36" y="330" />
            </Array>
          </mxGeometry>
        </mxCell>
        <mxCell id="tzNbkEb7s-4a03CU0OmQ-9" value="&lt;div style=&quot;font-size: 10px;&quot;&gt;&lt;font style=&quot;font-size: 10px;&quot;&gt;Klik tambah&lt;/font&gt;&lt;/div&gt;&lt;div style=&quot;font-size: 10px;&quot;&gt;user&lt;font style=&quot;font-size: 10px;&quot;&gt;&lt;br style=&quot;font-size: 10px;&quot;&gt;&lt;/font&gt;&lt;/div&gt;" style="rounded=1;whiteSpace=wrap;html=1;fontSize=10;" parent="tzNbkEb7s-4a03CU0OmQ-2" vertex="1">
          <mxGeometry x="12.5" y="280" width="57.5" height="30" as="geometry" />
        </mxCell>
        <mxCell id="j7Imx5QuWKuZkJdwB4s6-5" style="edgeStyle=orthogonalEdgeStyle;rounded=0;orthogonalLoop=1;jettySize=auto;html=1;" parent="tzNbkEb7s-4a03CU0OmQ-2" source="tzNbkEb7s-4a03CU0OmQ-10" edge="1">
          <mxGeometry relative="1" as="geometry">
            <mxPoint x="113.125" y="290" as="targetPoint" />
          </mxGeometry>
        </mxCell>
        <mxCell id="tzNbkEb7s-4a03CU0OmQ-10" value="&lt;div style=&quot;font-size: 10px;&quot;&gt;&lt;font style=&quot;font-size: 10px;&quot;&gt;Klik hapus&lt;/font&gt;&lt;/div&gt;&lt;div style=&quot;font-size: 10px;&quot;&gt;&lt;font style=&quot;font-size: 10px;&quot;&gt;user&lt;br style=&quot;font-size: 10px;&quot;&gt;&lt;/font&gt;&lt;/div&gt;" style="rounded=1;whiteSpace=wrap;html=1;fontSize=10;" parent="tzNbkEb7s-4a03CU0OmQ-2" vertex="1">
          <mxGeometry x="86.25" y="280" width="53.75" height="30" as="geometry" />
        </mxCell>
        <mxCell id="tzNbkEb7s-4a03CU0OmQ-11" value="&lt;div style=&quot;font-size: 10px;&quot;&gt;&lt;font style=&quot;font-size: 10px;&quot;&gt;Klik edit&lt;/font&gt;&lt;/div&gt;&lt;div style=&quot;font-size: 10px;&quot;&gt;user&lt;font style=&quot;font-size: 10px;&quot;&gt;&lt;br style=&quot;font-size: 10px;&quot;&gt;&lt;/font&gt;&lt;/div&gt;" style="rounded=1;whiteSpace=wrap;html=1;fontSize=10;" parent="tzNbkEb7s-4a03CU0OmQ-2" vertex="1">
          <mxGeometry x="160" y="280" width="47.5" height="30" as="geometry" />
        </mxCell>
        <mxCell id="tzNbkEb7s-4a03CU0OmQ-12" style="edgeStyle=orthogonalEdgeStyle;rounded=0;orthogonalLoop=1;jettySize=auto;html=1;entryX=0.5;entryY=0;entryDx=0;entryDy=0;" parent="tzNbkEb7s-4a03CU0OmQ-2" source="tzNbkEb7s-4a03CU0OmQ-13" target="tzNbkEb7s-4a03CU0OmQ-19" edge="1">
          <mxGeometry relative="1" as="geometry">
            <Array as="points">
              <mxPoint x="41" y="400" />
              <mxPoint x="41" y="400" />
            </Array>
          </mxGeometry>
        </mxCell>
        <mxCell id="tzNbkEb7s-4a03CU0OmQ-13" value="&lt;div style=&quot;font-size: 10px;&quot;&gt;&lt;font style=&quot;font-size: 10px;&quot;&gt;Input tambah&lt;/font&gt;&lt;/div&gt;&lt;div style=&quot;font-size: 10px;&quot;&gt;&lt;font style=&quot;font-size: 10px;&quot;&gt;user&lt;br style=&quot;font-size: 10px;&quot;&gt;&lt;/font&gt;&lt;/div&gt;" style="rounded=1;whiteSpace=wrap;html=1;fontSize=10;" parent="tzNbkEb7s-4a03CU0OmQ-2" vertex="1">
          <mxGeometry x="12.5" y="350" width="67.5" height="30" as="geometry" />
        </mxCell>
        <mxCell id="tzNbkEb7s-4a03CU0OmQ-14" style="edgeStyle=orthogonalEdgeStyle;rounded=0;orthogonalLoop=1;jettySize=auto;html=1;entryX=0.5;entryY=0;entryDx=0;entryDy=0;fontSize=10;" parent="tzNbkEb7s-4a03CU0OmQ-2" source="tzNbkEb7s-4a03CU0OmQ-15" target="tzNbkEb7s-4a03CU0OmQ-20" edge="1">
          <mxGeometry relative="1" as="geometry" />
        </mxCell>
        <mxCell id="tzNbkEb7s-4a03CU0OmQ-15" value="&lt;div style=&quot;font-size: 10px;&quot;&gt;&lt;font style=&quot;font-size: 10px;&quot;&gt;Input edit&lt;/font&gt;&lt;/div&gt;&lt;div style=&quot;font-size: 10px;&quot;&gt;user&lt;font style=&quot;font-size: 10px;&quot;&gt;&lt;br style=&quot;font-size: 10px;&quot;&gt;&lt;/font&gt;&lt;/div&gt;" style="rounded=1;whiteSpace=wrap;html=1;fontSize=10;" parent="tzNbkEb7s-4a03CU0OmQ-2" vertex="1">
          <mxGeometry x="160" y="350" width="47.5" height="30" as="geometry" />
        </mxCell>
        <mxCell id="tzNbkEb7s-4a03CU0OmQ-19" value="Klik create" style="rounded=1;whiteSpace=wrap;html=1;fontSize=10;" parent="tzNbkEb7s-4a03CU0OmQ-2" vertex="1">
          <mxGeometry x="12.5" y="410" width="57.5" height="20" as="geometry" />
        </mxCell>
        <mxCell id="tzNbkEb7s-4a03CU0OmQ-20" value="Klik save" style="rounded=1;whiteSpace=wrap;html=1;fontSize=10;" parent="tzNbkEb7s-4a03CU0OmQ-2" vertex="1">
          <mxGeometry x="160" y="410" width="47.5" height="20" as="geometry" />
        </mxCell>
        <mxCell id="j7Imx5QuWKuZkJdwB4s6-1" value="" style="ellipse;html=1;shape=startState;fillColor=#000000;strokeColor=#ff0000;" parent="tzNbkEb7s-4a03CU0OmQ-2" vertex="1">
          <mxGeometry x="95" y="30" width="30" height="30" as="geometry" />
        </mxCell>
        <mxCell id="j7Imx5QuWKuZkJdwB4s6-2" value="" style="edgeStyle=orthogonalEdgeStyle;html=1;verticalAlign=bottom;endArrow=open;endSize=8;strokeColor=#ff0000;rounded=0;" parent="tzNbkEb7s-4a03CU0OmQ-2" source="j7Imx5QuWKuZkJdwB4s6-1" edge="1">
          <mxGeometry relative="1" as="geometry">
            <mxPoint x="110" y="110" as="targetPoint" />
          </mxGeometry>
        </mxCell>
        <mxCell id="j7Imx5QuWKuZkJdwB4s6-3" value="" style="shape=line;html=1;strokeWidth=6;strokeColor=#ff0000;" parent="tzNbkEb7s-4a03CU0OmQ-2" vertex="1">
          <mxGeometry x="13.129999999999995" y="240" width="200" height="10" as="geometry" />
        </mxCell>
        <mxCell id="j7Imx5QuWKuZkJdwB4s6-4" value="" style="edgeStyle=orthogonalEdgeStyle;html=1;verticalAlign=bottom;endArrow=open;endSize=8;strokeColor=#ff0000;rounded=0;" parent="tzNbkEb7s-4a03CU0OmQ-2" source="j7Imx5QuWKuZkJdwB4s6-3" edge="1">
          <mxGeometry relative="1" as="geometry">
            <mxPoint x="113" y="280" as="targetPoint" />
          </mxGeometry>
        </mxCell>
        <mxCell id="j7Imx5QuWKuZkJdwB4s6-7" value="" style="edgeStyle=orthogonalEdgeStyle;html=1;verticalAlign=bottom;endArrow=open;endSize=8;strokeColor=#ff0000;rounded=0;" parent="tzNbkEb7s-4a03CU0OmQ-2" edge="1">
          <mxGeometry relative="1" as="geometry">
            <mxPoint x="190" y="280" as="targetPoint" />
            <mxPoint x="190" y="250" as="sourcePoint" />
          </mxGeometry>
        </mxCell>
        <mxCell id="j7Imx5QuWKuZkJdwB4s6-8" value="" style="edgeStyle=orthogonalEdgeStyle;html=1;verticalAlign=bottom;endArrow=open;endSize=8;strokeColor=#ff0000;rounded=0;exitX=0.135;exitY=0.722;exitDx=0;exitDy=0;exitPerimeter=0;entryX=0.48;entryY=-0.077;entryDx=0;entryDy=0;entryPerimeter=0;" parent="tzNbkEb7s-4a03CU0OmQ-2" source="j7Imx5QuWKuZkJdwB4s6-3" target="tzNbkEb7s-4a03CU0OmQ-9" edge="1">
          <mxGeometry relative="1" as="geometry">
            <mxPoint x="133" y="300" as="targetPoint" />
            <mxPoint x="133" y="270" as="sourcePoint" />
          </mxGeometry>
        </mxCell>
        <mxCell id="tzNbkEb7s-4a03CU0OmQ-21" value="Sistem" style="swimlane;html=1;startSize=20;" parent="tzNbkEb7s-4a03CU0OmQ-1" vertex="1">
          <mxGeometry x="220" y="20" width="260" height="700" as="geometry" />
        </mxCell>
        <mxCell id="tzNbkEb7s-4a03CU0OmQ-22" value="&lt;font style=&quot;font-size: 10px;&quot;&gt;Menampilkan halaman user&lt;/font&gt;" style="rounded=1;whiteSpace=wrap;html=1;fontSize=10;" parent="tzNbkEb7s-4a03CU0OmQ-21" vertex="1">
          <mxGeometry x="90" y="110" width="110" height="30" as="geometry" />
        </mxCell>
        <mxCell id="j7Imx5QuWKuZkJdwB4s6-15" style="edgeStyle=orthogonalEdgeStyle;rounded=0;orthogonalLoop=1;jettySize=auto;html=1;" parent="tzNbkEb7s-4a03CU0OmQ-21" source="tzNbkEb7s-4a03CU0OmQ-25" target="j7Imx5QuWKuZkJdwB4s6-12" edge="1">
          <mxGeometry relative="1" as="geometry" />
        </mxCell>
        <mxCell id="tzNbkEb7s-4a03CU0OmQ-25" value="&lt;font style=&quot;font-size: 10px;&quot;&gt;Menyimpan user&lt;/font&gt;" style="rounded=1;whiteSpace=wrap;html=1;fontSize=10;" parent="tzNbkEb7s-4a03CU0OmQ-21" vertex="1">
          <mxGeometry x="50" y="520" width="90" height="30" as="geometry" />
        </mxCell>
        <mxCell id="tzNbkEb7s-4a03CU0OmQ-26" value="&lt;div style=&quot;font-size: 10px;&quot;&gt;Menampilkan&lt;/div&gt;&lt;div style=&quot;font-size: 10px;&quot;&gt;halaman edit user&lt;br style=&quot;font-size: 10px;&quot;&gt;&lt;/div&gt;" style="rounded=1;whiteSpace=wrap;html=1;fontSize=10;" parent="tzNbkEb7s-4a03CU0OmQ-21" vertex="1">
          <mxGeometry x="30" y="320" width="110" height="30" as="geometry" />
        </mxCell>
        <mxCell id="tzNbkEb7s-4a03CU0OmQ-27" style="edgeStyle=orthogonalEdgeStyle;rounded=0;orthogonalLoop=1;jettySize=auto;html=1;entryX=0.887;entryY=0.31;entryDx=0;entryDy=0;entryPerimeter=0;" parent="tzNbkEb7s-4a03CU0OmQ-21" source="tzNbkEb7s-4a03CU0OmQ-29" target="j7Imx5QuWKuZkJdwB4s6-12" edge="1">
          <mxGeometry relative="1" as="geometry">
            <mxPoint x="204" y="570" as="targetPoint" />
          </mxGeometry>
        </mxCell>
        <mxCell id="tzNbkEb7s-4a03CU0OmQ-28" value="Ya" style="edgeLabel;html=1;align=center;verticalAlign=middle;resizable=0;points=[];" parent="tzNbkEb7s-4a03CU0OmQ-27" vertex="1" connectable="0">
          <mxGeometry x="-0.4462" relative="1" as="geometry">
            <mxPoint as="offset" />
          </mxGeometry>
        </mxCell>
        <mxCell id="tzNbkEb7s-4a03CU0OmQ-29" value="Pilihan" style="rhombus;whiteSpace=wrap;html=1;" parent="tzNbkEb7s-4a03CU0OmQ-21" vertex="1">
          <mxGeometry x="170" y="420" width="70" height="70" as="geometry" />
        </mxCell>
        <mxCell id="j7Imx5QuWKuZkJdwB4s6-12" value="" style="shape=line;html=1;strokeWidth=6;strokeColor=#ff0000;" parent="tzNbkEb7s-4a03CU0OmQ-21" vertex="1">
          <mxGeometry x="30" y="580" width="200" height="10" as="geometry" />
        </mxCell>
        <mxCell id="j7Imx5QuWKuZkJdwB4s6-13" value="" style="edgeStyle=orthogonalEdgeStyle;html=1;verticalAlign=bottom;endArrow=open;endSize=8;strokeColor=#ff0000;rounded=0;" parent="tzNbkEb7s-4a03CU0OmQ-21" source="j7Imx5QuWKuZkJdwB4s6-12" edge="1">
          <mxGeometry relative="1" as="geometry">
            <mxPoint x="130" y="640" as="targetPoint" />
          </mxGeometry>
        </mxCell>
        <mxCell id="j7Imx5QuWKuZkJdwB4s6-14" value="" style="ellipse;html=1;shape=endState;fillColor=#000000;strokeColor=#ff0000;" parent="tzNbkEb7s-4a03CU0OmQ-21" vertex="1">
          <mxGeometry x="115" y="640" width="30" height="30" as="geometry" />
        </mxCell>
        <mxCell id="tzNbkEb7s-4a03CU0OmQ-32" style="edgeStyle=orthogonalEdgeStyle;rounded=0;orthogonalLoop=1;jettySize=auto;html=1;entryX=0;entryY=0.5;entryDx=0;entryDy=0;" parent="tzNbkEb7s-4a03CU0OmQ-1" source="tzNbkEb7s-4a03CU0OmQ-5" target="tzNbkEb7s-4a03CU0OmQ-22" edge="1">
          <mxGeometry relative="1" as="geometry" />
        </mxCell>
        <mxCell id="tzNbkEb7s-4a03CU0OmQ-33" style="edgeStyle=orthogonalEdgeStyle;rounded=0;orthogonalLoop=1;jettySize=auto;html=1;entryX=0.504;entryY=0.071;entryDx=0;entryDy=0;entryPerimeter=0;" parent="tzNbkEb7s-4a03CU0OmQ-1" source="tzNbkEb7s-4a03CU0OmQ-22" target="tzNbkEb7s-4a03CU0OmQ-6" edge="1">
          <mxGeometry relative="1" as="geometry">
            <Array as="points">
              <mxPoint x="380" y="180" />
              <mxPoint x="110" y="180" />
              <mxPoint x="110" y="190" />
              <mxPoint x="110" y="190" />
            </Array>
          </mxGeometry>
        </mxCell>
        <mxCell id="tzNbkEb7s-4a03CU0OmQ-34" style="edgeStyle=orthogonalEdgeStyle;rounded=0;orthogonalLoop=1;jettySize=auto;html=1;entryX=0.011;entryY=0.526;entryDx=0;entryDy=0;entryPerimeter=0;" parent="tzNbkEb7s-4a03CU0OmQ-1" source="tzNbkEb7s-4a03CU0OmQ-19" target="tzNbkEb7s-4a03CU0OmQ-25" edge="1">
          <mxGeometry relative="1" as="geometry">
            <Array as="points">
              <mxPoint x="41" y="555" />
              <mxPoint x="250" y="555" />
            </Array>
          </mxGeometry>
        </mxCell>
        <mxCell id="tzNbkEb7s-4a03CU0OmQ-35" style="edgeStyle=orthogonalEdgeStyle;rounded=0;orthogonalLoop=1;jettySize=auto;html=1;entryX=0.5;entryY=0;entryDx=0;entryDy=0;" parent="tzNbkEb7s-4a03CU0OmQ-1" source="tzNbkEb7s-4a03CU0OmQ-11" target="tzNbkEb7s-4a03CU0OmQ-26" edge="1">
          <mxGeometry relative="1" as="geometry">
            <mxPoint x="380" y="315" as="targetPoint" />
          </mxGeometry>
        </mxCell>
        <mxCell id="tzNbkEb7s-4a03CU0OmQ-36" style="edgeStyle=orthogonalEdgeStyle;rounded=0;orthogonalLoop=1;jettySize=auto;html=1;entryX=0.973;entryY=0.613;entryDx=0;entryDy=0;entryPerimeter=0;" parent="tzNbkEb7s-4a03CU0OmQ-1" source="tzNbkEb7s-4a03CU0OmQ-26" target="tzNbkEb7s-4a03CU0OmQ-15" edge="1">
          <mxGeometry relative="1" as="geometry">
            <Array as="points">
              <mxPoint x="300" y="388" />
            </Array>
          </mxGeometry>
        </mxCell>
        <mxCell id="tzNbkEb7s-4a03CU0OmQ-38" style="edgeStyle=orthogonalEdgeStyle;rounded=0;orthogonalLoop=1;jettySize=auto;html=1;" parent="tzNbkEb7s-4a03CU0OmQ-1" source="tzNbkEb7s-4a03CU0OmQ-10" edge="1">
          <mxGeometry relative="1" as="geometry">
            <mxPoint x="390" y="480" as="targetPoint" />
            <Array as="points">
              <mxPoint x="110" y="480" />
            </Array>
          </mxGeometry>
        </mxCell>
        <mxCell id="tzNbkEb7s-4a03CU0OmQ-39" style="edgeStyle=orthogonalEdgeStyle;rounded=0;orthogonalLoop=1;jettySize=auto;html=1;entryX=1;entryY=0.5;entryDx=0;entryDy=0;" parent="tzNbkEb7s-4a03CU0OmQ-1" source="tzNbkEb7s-4a03CU0OmQ-29" target="tzNbkEb7s-4a03CU0OmQ-6" edge="1">
          <mxGeometry relative="1" as="geometry">
            <Array as="points">
              <mxPoint x="425" y="215" />
            </Array>
          </mxGeometry>
        </mxCell>
        <mxCell id="tzNbkEb7s-4a03CU0OmQ-40" value="Tidak" style="edgeLabel;html=1;align=center;verticalAlign=middle;resizable=0;points=[];" parent="tzNbkEb7s-4a03CU0OmQ-39" vertex="1" connectable="0">
          <mxGeometry x="-0.4206" y="1" relative="1" as="geometry">
            <mxPoint as="offset" />
          </mxGeometry>
        </mxCell>
        <mxCell id="j7Imx5QuWKuZkJdwB4s6-11" style="edgeStyle=orthogonalEdgeStyle;rounded=0;orthogonalLoop=1;jettySize=auto;html=1;entryX=0.5;entryY=0;entryDx=0;entryDy=0;" parent="tzNbkEb7s-4a03CU0OmQ-1" source="tzNbkEb7s-4a03CU0OmQ-20" target="tzNbkEb7s-4a03CU0OmQ-25" edge="1">
          <mxGeometry relative="1" as="geometry" />
        </mxCell>
      </root>
    </mxGraphModel>
  </diagram>
  <diagram id="dc9z3Dh_ugt2BYVE9vA3" name="kelola erita">
    <mxGraphModel dx="1257" dy="643" grid="1" gridSize="10" guides="1" tooltips="1" connect="1" arrows="1" fold="1" page="1" pageScale="1" pageWidth="827" pageHeight="1169" math="0" shadow="0">
      <root>
        <mxCell id="0" />
        <mxCell id="1" parent="0" />
        <mxCell id="OJa1-NGMFE0TqbbZfhfQ-1" value="&lt;font style=&quot;font-size: 9px;&quot;&gt;&lt;b style=&quot;mso-bidi-font-weight:normal&quot;&gt;&lt;i style=&quot;mso-bidi-font-style:normal&quot;&gt;&lt;span style=&quot;font-family: &amp;quot;Times New Roman&amp;quot;, serif;&quot;&gt;Activity Diagram &lt;/span&gt;&lt;/i&gt;&lt;span style=&quot;line-height: 150%; font-family: &amp;quot;Times New Roman&amp;quot;, serif;&quot;&gt;Mengelola&amp;nbsp; Berita&lt;/span&gt;&lt;/b&gt;&lt;/font&gt;" style="swimlane;html=1;childLayout=stackLayout;startSize=20;rounded=0;shadow=0;labelBackgroundColor=none;strokeWidth=1;fontFamily=Verdana;fontSize=8;align=center;" vertex="1" parent="1">
          <mxGeometry x="220" y="20" width="480" height="720" as="geometry" />
        </mxCell>
        <mxCell id="OJa1-NGMFE0TqbbZfhfQ-2" value="Admin" style="swimlane;html=1;startSize=20;" vertex="1" parent="OJa1-NGMFE0TqbbZfhfQ-1">
          <mxGeometry y="20" width="220" height="700" as="geometry" />
        </mxCell>
        <mxCell id="OJa1-NGMFE0TqbbZfhfQ-3" value="&lt;font style=&quot;font-size: 10px;&quot;&gt;Pilih Menu berita&lt;/font&gt;" style="rounded=1;whiteSpace=wrap;html=1;fontSize=10;" vertex="1" parent="OJa1-NGMFE0TqbbZfhfQ-2">
          <mxGeometry x="60" y="110" width="100" height="30" as="geometry" />
        </mxCell>
        <mxCell id="OJa1-NGMFE0TqbbZfhfQ-4" style="edgeStyle=orthogonalEdgeStyle;rounded=0;orthogonalLoop=1;jettySize=auto;html=1;" edge="1" parent="OJa1-NGMFE0TqbbZfhfQ-2" source="OJa1-NGMFE0TqbbZfhfQ-5">
          <mxGeometry relative="1" as="geometry">
            <mxPoint x="110" y="240" as="targetPoint" />
          </mxGeometry>
        </mxCell>
        <mxCell id="OJa1-NGMFE0TqbbZfhfQ-5" value="&lt;div style=&quot;font-size: 10px;&quot;&gt;&lt;font style=&quot;font-size: 10px;&quot;&gt;Melihat halaman&lt;/font&gt;&lt;/div&gt;&lt;div style=&quot;font-size: 10px;&quot;&gt;berita&lt;/div&gt;" style="rounded=1;whiteSpace=wrap;html=1;fontSize=10;" vertex="1" parent="OJa1-NGMFE0TqbbZfhfQ-2">
          <mxGeometry x="60" y="180" width="100" height="30" as="geometry" />
        </mxCell>
        <mxCell id="OJa1-NGMFE0TqbbZfhfQ-6" style="edgeStyle=orthogonalEdgeStyle;rounded=0;orthogonalLoop=1;jettySize=auto;html=1;" edge="1" parent="OJa1-NGMFE0TqbbZfhfQ-2" source="OJa1-NGMFE0TqbbZfhfQ-7" target="OJa1-NGMFE0TqbbZfhfQ-12">
          <mxGeometry relative="1" as="geometry">
            <Array as="points">
              <mxPoint x="35" y="330" />
              <mxPoint x="36" y="330" />
            </Array>
          </mxGeometry>
        </mxCell>
        <mxCell id="OJa1-NGMFE0TqbbZfhfQ-7" value="&lt;div style=&quot;font-size: 10px;&quot;&gt;&lt;font style=&quot;font-size: 10px;&quot;&gt;Klik tambah&lt;/font&gt;&lt;/div&gt;&lt;div style=&quot;font-size: 10px;&quot;&gt;berita&lt;font style=&quot;font-size: 10px;&quot;&gt;&lt;br style=&quot;font-size: 10px;&quot;&gt;&lt;/font&gt;&lt;/div&gt;" style="rounded=1;whiteSpace=wrap;html=1;fontSize=10;" vertex="1" parent="OJa1-NGMFE0TqbbZfhfQ-2">
          <mxGeometry x="12.5" y="280" width="63.5" height="30" as="geometry" />
        </mxCell>
        <mxCell id="OJa1-NGMFE0TqbbZfhfQ-8" style="edgeStyle=orthogonalEdgeStyle;rounded=0;orthogonalLoop=1;jettySize=auto;html=1;" edge="1" parent="OJa1-NGMFE0TqbbZfhfQ-2" source="OJa1-NGMFE0TqbbZfhfQ-9">
          <mxGeometry relative="1" as="geometry">
            <mxPoint x="113.125" y="290" as="targetPoint" />
          </mxGeometry>
        </mxCell>
        <mxCell id="OJa1-NGMFE0TqbbZfhfQ-9" value="&lt;div style=&quot;font-size: 10px;&quot;&gt;&lt;font style=&quot;font-size: 10px;&quot;&gt;Klik hapus&lt;/font&gt;&lt;/div&gt;&lt;div style=&quot;font-size: 10px;&quot;&gt;&lt;font style=&quot;font-size: 10px;&quot;&gt;berita&lt;br style=&quot;font-size: 10px;&quot;&gt;&lt;/font&gt;&lt;/div&gt;" style="rounded=1;whiteSpace=wrap;html=1;fontSize=10;" vertex="1" parent="OJa1-NGMFE0TqbbZfhfQ-2">
          <mxGeometry x="86.25" y="280" width="53.75" height="30" as="geometry" />
        </mxCell>
        <mxCell id="OJa1-NGMFE0TqbbZfhfQ-10" value="&lt;div style=&quot;font-size: 10px;&quot;&gt;&lt;font style=&quot;font-size: 10px;&quot;&gt;Klik edit&lt;/font&gt;&lt;/div&gt;&lt;div style=&quot;font-size: 10px;&quot;&gt;berita&lt;font style=&quot;font-size: 10px;&quot;&gt;&lt;br style=&quot;font-size: 10px;&quot;&gt;&lt;/font&gt;&lt;/div&gt;" style="rounded=1;whiteSpace=wrap;html=1;fontSize=10;" vertex="1" parent="OJa1-NGMFE0TqbbZfhfQ-2">
          <mxGeometry x="160" y="280" width="47.5" height="30" as="geometry" />
        </mxCell>
        <mxCell id="OJa1-NGMFE0TqbbZfhfQ-11" style="edgeStyle=orthogonalEdgeStyle;rounded=0;orthogonalLoop=1;jettySize=auto;html=1;entryX=0.5;entryY=0;entryDx=0;entryDy=0;" edge="1" parent="OJa1-NGMFE0TqbbZfhfQ-2" source="OJa1-NGMFE0TqbbZfhfQ-12" target="OJa1-NGMFE0TqbbZfhfQ-15">
          <mxGeometry relative="1" as="geometry">
            <Array as="points">
              <mxPoint x="41" y="400" />
              <mxPoint x="41" y="400" />
            </Array>
          </mxGeometry>
        </mxCell>
        <mxCell id="OJa1-NGMFE0TqbbZfhfQ-12" value="&lt;div style=&quot;font-size: 10px;&quot;&gt;&lt;font style=&quot;font-size: 10px;&quot;&gt;Input tambah&lt;/font&gt;&lt;/div&gt;&lt;div style=&quot;font-size: 10px;&quot;&gt;&lt;font style=&quot;font-size: 10px;&quot;&gt;berita&lt;br style=&quot;font-size: 10px;&quot;&gt;&lt;/font&gt;&lt;/div&gt;" style="rounded=1;whiteSpace=wrap;html=1;fontSize=10;" vertex="1" parent="OJa1-NGMFE0TqbbZfhfQ-2">
          <mxGeometry x="12.5" y="350" width="67.5" height="30" as="geometry" />
        </mxCell>
        <mxCell id="OJa1-NGMFE0TqbbZfhfQ-13" style="edgeStyle=orthogonalEdgeStyle;rounded=0;orthogonalLoop=1;jettySize=auto;html=1;entryX=0.5;entryY=0;entryDx=0;entryDy=0;fontSize=10;" edge="1" parent="OJa1-NGMFE0TqbbZfhfQ-2" source="OJa1-NGMFE0TqbbZfhfQ-14" target="OJa1-NGMFE0TqbbZfhfQ-16">
          <mxGeometry relative="1" as="geometry" />
        </mxCell>
        <mxCell id="OJa1-NGMFE0TqbbZfhfQ-14" value="&lt;div style=&quot;font-size: 10px;&quot;&gt;&lt;font style=&quot;font-size: 10px;&quot;&gt;Input edit&lt;/font&gt;&lt;/div&gt;&lt;div style=&quot;font-size: 10px;&quot;&gt;berita&lt;font style=&quot;font-size: 10px;&quot;&gt;&lt;br style=&quot;font-size: 10px;&quot;&gt;&lt;/font&gt;&lt;/div&gt;" style="rounded=1;whiteSpace=wrap;html=1;fontSize=10;" vertex="1" parent="OJa1-NGMFE0TqbbZfhfQ-2">
          <mxGeometry x="160" y="350" width="47.5" height="30" as="geometry" />
        </mxCell>
        <mxCell id="OJa1-NGMFE0TqbbZfhfQ-15" value="Klik create" style="rounded=1;whiteSpace=wrap;html=1;fontSize=10;" vertex="1" parent="OJa1-NGMFE0TqbbZfhfQ-2">
          <mxGeometry x="12.5" y="410" width="57.5" height="20" as="geometry" />
        </mxCell>
        <mxCell id="OJa1-NGMFE0TqbbZfhfQ-16" value="Klik save" style="rounded=1;whiteSpace=wrap;html=1;fontSize=10;" vertex="1" parent="OJa1-NGMFE0TqbbZfhfQ-2">
          <mxGeometry x="160" y="410" width="47.5" height="20" as="geometry" />
        </mxCell>
        <mxCell id="OJa1-NGMFE0TqbbZfhfQ-17" value="" style="ellipse;html=1;shape=startState;fillColor=#000000;strokeColor=#ff0000;" vertex="1" parent="OJa1-NGMFE0TqbbZfhfQ-2">
          <mxGeometry x="95" y="30" width="30" height="30" as="geometry" />
        </mxCell>
        <mxCell id="OJa1-NGMFE0TqbbZfhfQ-18" value="" style="edgeStyle=orthogonalEdgeStyle;html=1;verticalAlign=bottom;endArrow=open;endSize=8;strokeColor=#ff0000;rounded=0;" edge="1" parent="OJa1-NGMFE0TqbbZfhfQ-2" source="OJa1-NGMFE0TqbbZfhfQ-17">
          <mxGeometry relative="1" as="geometry">
            <mxPoint x="110" y="110" as="targetPoint" />
          </mxGeometry>
        </mxCell>
        <mxCell id="OJa1-NGMFE0TqbbZfhfQ-19" value="" style="shape=line;html=1;strokeWidth=6;strokeColor=#ff0000;" vertex="1" parent="OJa1-NGMFE0TqbbZfhfQ-2">
          <mxGeometry x="13.129999999999995" y="240" width="200" height="10" as="geometry" />
        </mxCell>
        <mxCell id="OJa1-NGMFE0TqbbZfhfQ-20" value="" style="edgeStyle=orthogonalEdgeStyle;html=1;verticalAlign=bottom;endArrow=open;endSize=8;strokeColor=#ff0000;rounded=0;" edge="1" parent="OJa1-NGMFE0TqbbZfhfQ-2" source="OJa1-NGMFE0TqbbZfhfQ-19">
          <mxGeometry relative="1" as="geometry">
            <mxPoint x="113" y="280" as="targetPoint" />
          </mxGeometry>
        </mxCell>
        <mxCell id="OJa1-NGMFE0TqbbZfhfQ-21" value="" style="edgeStyle=orthogonalEdgeStyle;html=1;verticalAlign=bottom;endArrow=open;endSize=8;strokeColor=#ff0000;rounded=0;" edge="1" parent="OJa1-NGMFE0TqbbZfhfQ-2">
          <mxGeometry relative="1" as="geometry">
            <mxPoint x="190" y="280" as="targetPoint" />
            <mxPoint x="190" y="250" as="sourcePoint" />
          </mxGeometry>
        </mxCell>
        <mxCell id="OJa1-NGMFE0TqbbZfhfQ-22" value="" style="edgeStyle=orthogonalEdgeStyle;html=1;verticalAlign=bottom;endArrow=open;endSize=8;strokeColor=#ff0000;rounded=0;exitX=0.135;exitY=0.722;exitDx=0;exitDy=0;exitPerimeter=0;entryX=0.48;entryY=-0.077;entryDx=0;entryDy=0;entryPerimeter=0;" edge="1" parent="OJa1-NGMFE0TqbbZfhfQ-2" source="OJa1-NGMFE0TqbbZfhfQ-19" target="OJa1-NGMFE0TqbbZfhfQ-7">
          <mxGeometry relative="1" as="geometry">
            <mxPoint x="133" y="300" as="targetPoint" />
            <mxPoint x="133" y="270" as="sourcePoint" />
          </mxGeometry>
        </mxCell>
        <mxCell id="OJa1-NGMFE0TqbbZfhfQ-23" value="Sistem" style="swimlane;html=1;startSize=20;" vertex="1" parent="OJa1-NGMFE0TqbbZfhfQ-1">
          <mxGeometry x="220" y="20" width="260" height="700" as="geometry" />
        </mxCell>
        <mxCell id="OJa1-NGMFE0TqbbZfhfQ-24" value="&lt;font style=&quot;font-size: 10px;&quot;&gt;Menampilkan halaman berita&lt;/font&gt;" style="rounded=1;whiteSpace=wrap;html=1;fontSize=10;" vertex="1" parent="OJa1-NGMFE0TqbbZfhfQ-23">
          <mxGeometry x="90" y="110" width="110" height="30" as="geometry" />
        </mxCell>
        <mxCell id="OJa1-NGMFE0TqbbZfhfQ-25" style="edgeStyle=orthogonalEdgeStyle;rounded=0;orthogonalLoop=1;jettySize=auto;html=1;" edge="1" parent="OJa1-NGMFE0TqbbZfhfQ-23" source="OJa1-NGMFE0TqbbZfhfQ-26" target="OJa1-NGMFE0TqbbZfhfQ-31">
          <mxGeometry relative="1" as="geometry" />
        </mxCell>
        <mxCell id="OJa1-NGMFE0TqbbZfhfQ-26" value="&lt;font style=&quot;font-size: 10px;&quot;&gt;Menyimpan berita&lt;/font&gt;" style="rounded=1;whiteSpace=wrap;html=1;fontSize=10;" vertex="1" parent="OJa1-NGMFE0TqbbZfhfQ-23">
          <mxGeometry x="50" y="520" width="90" height="30" as="geometry" />
        </mxCell>
        <mxCell id="OJa1-NGMFE0TqbbZfhfQ-27" value="&lt;div style=&quot;font-size: 10px;&quot;&gt;Menampilkan&lt;/div&gt;&lt;div style=&quot;font-size: 10px;&quot;&gt;halaman edit berita&lt;br style=&quot;font-size: 10px;&quot;&gt;&lt;/div&gt;" style="rounded=1;whiteSpace=wrap;html=1;fontSize=10;" vertex="1" parent="OJa1-NGMFE0TqbbZfhfQ-23">
          <mxGeometry x="30" y="320" width="110" height="30" as="geometry" />
        </mxCell>
        <mxCell id="OJa1-NGMFE0TqbbZfhfQ-28" style="edgeStyle=orthogonalEdgeStyle;rounded=0;orthogonalLoop=1;jettySize=auto;html=1;entryX=0.887;entryY=0.31;entryDx=0;entryDy=0;entryPerimeter=0;" edge="1" parent="OJa1-NGMFE0TqbbZfhfQ-23" source="OJa1-NGMFE0TqbbZfhfQ-30" target="OJa1-NGMFE0TqbbZfhfQ-31">
          <mxGeometry relative="1" as="geometry">
            <mxPoint x="204" y="570" as="targetPoint" />
          </mxGeometry>
        </mxCell>
        <mxCell id="OJa1-NGMFE0TqbbZfhfQ-29" value="Ya" style="edgeLabel;html=1;align=center;verticalAlign=middle;resizable=0;points=[];" vertex="1" connectable="0" parent="OJa1-NGMFE0TqbbZfhfQ-28">
          <mxGeometry x="-0.4462" relative="1" as="geometry">
            <mxPoint as="offset" />
          </mxGeometry>
        </mxCell>
        <mxCell id="OJa1-NGMFE0TqbbZfhfQ-30" value="Pilihan" style="rhombus;whiteSpace=wrap;html=1;" vertex="1" parent="OJa1-NGMFE0TqbbZfhfQ-23">
          <mxGeometry x="170" y="420" width="70" height="70" as="geometry" />
        </mxCell>
        <mxCell id="OJa1-NGMFE0TqbbZfhfQ-31" value="" style="shape=line;html=1;strokeWidth=6;strokeColor=#ff0000;" vertex="1" parent="OJa1-NGMFE0TqbbZfhfQ-23">
          <mxGeometry x="30" y="580" width="200" height="10" as="geometry" />
        </mxCell>
        <mxCell id="OJa1-NGMFE0TqbbZfhfQ-32" value="" style="edgeStyle=orthogonalEdgeStyle;html=1;verticalAlign=bottom;endArrow=open;endSize=8;strokeColor=#ff0000;rounded=0;" edge="1" parent="OJa1-NGMFE0TqbbZfhfQ-23" source="OJa1-NGMFE0TqbbZfhfQ-31">
          <mxGeometry relative="1" as="geometry">
            <mxPoint x="130" y="640" as="targetPoint" />
          </mxGeometry>
        </mxCell>
        <mxCell id="OJa1-NGMFE0TqbbZfhfQ-33" value="" style="ellipse;html=1;shape=endState;fillColor=#000000;strokeColor=#ff0000;" vertex="1" parent="OJa1-NGMFE0TqbbZfhfQ-23">
          <mxGeometry x="115" y="640" width="30" height="30" as="geometry" />
        </mxCell>
        <mxCell id="OJa1-NGMFE0TqbbZfhfQ-34" style="edgeStyle=orthogonalEdgeStyle;rounded=0;orthogonalLoop=1;jettySize=auto;html=1;entryX=0;entryY=0.5;entryDx=0;entryDy=0;" edge="1" parent="OJa1-NGMFE0TqbbZfhfQ-1" source="OJa1-NGMFE0TqbbZfhfQ-3" target="OJa1-NGMFE0TqbbZfhfQ-24">
          <mxGeometry relative="1" as="geometry" />
        </mxCell>
        <mxCell id="OJa1-NGMFE0TqbbZfhfQ-35" style="edgeStyle=orthogonalEdgeStyle;rounded=0;orthogonalLoop=1;jettySize=auto;html=1;entryX=0.504;entryY=0.071;entryDx=0;entryDy=0;entryPerimeter=0;" edge="1" parent="OJa1-NGMFE0TqbbZfhfQ-1" source="OJa1-NGMFE0TqbbZfhfQ-24" target="OJa1-NGMFE0TqbbZfhfQ-5">
          <mxGeometry relative="1" as="geometry">
            <Array as="points">
              <mxPoint x="380" y="180" />
              <mxPoint x="110" y="180" />
              <mxPoint x="110" y="190" />
              <mxPoint x="110" y="190" />
            </Array>
          </mxGeometry>
        </mxCell>
        <mxCell id="OJa1-NGMFE0TqbbZfhfQ-36" style="edgeStyle=orthogonalEdgeStyle;rounded=0;orthogonalLoop=1;jettySize=auto;html=1;entryX=0.011;entryY=0.526;entryDx=0;entryDy=0;entryPerimeter=0;" edge="1" parent="OJa1-NGMFE0TqbbZfhfQ-1" source="OJa1-NGMFE0TqbbZfhfQ-15" target="OJa1-NGMFE0TqbbZfhfQ-26">
          <mxGeometry relative="1" as="geometry">
            <Array as="points">
              <mxPoint x="41" y="555" />
              <mxPoint x="250" y="555" />
            </Array>
          </mxGeometry>
        </mxCell>
        <mxCell id="OJa1-NGMFE0TqbbZfhfQ-37" style="edgeStyle=orthogonalEdgeStyle;rounded=0;orthogonalLoop=1;jettySize=auto;html=1;entryX=0.5;entryY=0;entryDx=0;entryDy=0;" edge="1" parent="OJa1-NGMFE0TqbbZfhfQ-1" source="OJa1-NGMFE0TqbbZfhfQ-10" target="OJa1-NGMFE0TqbbZfhfQ-27">
          <mxGeometry relative="1" as="geometry">
            <mxPoint x="380" y="315" as="targetPoint" />
          </mxGeometry>
        </mxCell>
        <mxCell id="OJa1-NGMFE0TqbbZfhfQ-38" style="edgeStyle=orthogonalEdgeStyle;rounded=0;orthogonalLoop=1;jettySize=auto;html=1;entryX=0.973;entryY=0.613;entryDx=0;entryDy=0;entryPerimeter=0;" edge="1" parent="OJa1-NGMFE0TqbbZfhfQ-1" source="OJa1-NGMFE0TqbbZfhfQ-27" target="OJa1-NGMFE0TqbbZfhfQ-14">
          <mxGeometry relative="1" as="geometry">
            <Array as="points">
              <mxPoint x="300" y="388" />
            </Array>
          </mxGeometry>
        </mxCell>
        <mxCell id="OJa1-NGMFE0TqbbZfhfQ-39" style="edgeStyle=orthogonalEdgeStyle;rounded=0;orthogonalLoop=1;jettySize=auto;html=1;" edge="1" parent="OJa1-NGMFE0TqbbZfhfQ-1" source="OJa1-NGMFE0TqbbZfhfQ-9">
          <mxGeometry relative="1" as="geometry">
            <mxPoint x="390" y="480" as="targetPoint" />
            <Array as="points">
              <mxPoint x="110" y="480" />
            </Array>
          </mxGeometry>
        </mxCell>
        <mxCell id="OJa1-NGMFE0TqbbZfhfQ-40" style="edgeStyle=orthogonalEdgeStyle;rounded=0;orthogonalLoop=1;jettySize=auto;html=1;entryX=1;entryY=0.5;entryDx=0;entryDy=0;" edge="1" parent="OJa1-NGMFE0TqbbZfhfQ-1" source="OJa1-NGMFE0TqbbZfhfQ-30" target="OJa1-NGMFE0TqbbZfhfQ-5">
          <mxGeometry relative="1" as="geometry">
            <Array as="points">
              <mxPoint x="425" y="215" />
            </Array>
          </mxGeometry>
        </mxCell>
        <mxCell id="OJa1-NGMFE0TqbbZfhfQ-41" value="Tidak" style="edgeLabel;html=1;align=center;verticalAlign=middle;resizable=0;points=[];" vertex="1" connectable="0" parent="OJa1-NGMFE0TqbbZfhfQ-40">
          <mxGeometry x="-0.4206" y="1" relative="1" as="geometry">
            <mxPoint as="offset" />
          </mxGeometry>
        </mxCell>
        <mxCell id="OJa1-NGMFE0TqbbZfhfQ-42" style="edgeStyle=orthogonalEdgeStyle;rounded=0;orthogonalLoop=1;jettySize=auto;html=1;entryX=0.5;entryY=0;entryDx=0;entryDy=0;" edge="1" parent="OJa1-NGMFE0TqbbZfhfQ-1" source="OJa1-NGMFE0TqbbZfhfQ-16" target="OJa1-NGMFE0TqbbZfhfQ-26">
          <mxGeometry relative="1" as="geometry" />
        </mxCell>
      </root>
    </mxGraphModel>
  </diagram>
  <diagram id="raIJ9SpZeu4e71pVDWHw" name="pegawai">
    <mxGraphModel dx="800" dy="409" grid="1" gridSize="10" guides="1" tooltips="1" connect="1" arrows="1" fold="1" page="1" pageScale="1" pageWidth="827" pageHeight="1169" math="0" shadow="0">
      <root>
        <mxCell id="0" />
        <mxCell id="1" parent="0" />
        <mxCell id="KR-VjzTQhPIVuxpKv5Yd-1" value="&lt;font style=&quot;font-size: 9px;&quot;&gt;&lt;b style=&quot;mso-bidi-font-weight:normal&quot;&gt;&lt;i style=&quot;mso-bidi-font-style:normal&quot;&gt;&lt;span style=&quot;font-family: &amp;quot;Times New Roman&amp;quot;, serif;&quot;&gt;Activity Diagram &lt;/span&gt;&lt;/i&gt;&lt;span style=&quot;line-height: 150%; font-family: &amp;quot;Times New Roman&amp;quot;, serif;&quot;&gt;Mengelola Pegawai&lt;/span&gt;&lt;/b&gt;&lt;/font&gt;" style="swimlane;html=1;childLayout=stackLayout;startSize=20;rounded=0;shadow=0;labelBackgroundColor=none;strokeWidth=1;fontFamily=Verdana;fontSize=8;align=center;" vertex="1" parent="1">
          <mxGeometry x="230" y="70" width="480" height="720" as="geometry" />
        </mxCell>
        <mxCell id="KR-VjzTQhPIVuxpKv5Yd-2" value="Admin" style="swimlane;html=1;startSize=20;" vertex="1" parent="KR-VjzTQhPIVuxpKv5Yd-1">
          <mxGeometry y="20" width="220" height="700" as="geometry" />
        </mxCell>
        <mxCell id="KR-VjzTQhPIVuxpKv5Yd-3" value="&lt;font style=&quot;font-size: 10px;&quot;&gt;Pilih Menu pegawai&lt;/font&gt;" style="rounded=1;whiteSpace=wrap;html=1;fontSize=10;" vertex="1" parent="KR-VjzTQhPIVuxpKv5Yd-2">
          <mxGeometry x="60" y="110" width="100" height="30" as="geometry" />
        </mxCell>
        <mxCell id="KR-VjzTQhPIVuxpKv5Yd-4" style="edgeStyle=orthogonalEdgeStyle;rounded=0;orthogonalLoop=1;jettySize=auto;html=1;" edge="1" parent="KR-VjzTQhPIVuxpKv5Yd-2" source="KR-VjzTQhPIVuxpKv5Yd-5">
          <mxGeometry relative="1" as="geometry">
            <mxPoint x="110" y="240" as="targetPoint" />
          </mxGeometry>
        </mxCell>
        <mxCell id="KR-VjzTQhPIVuxpKv5Yd-5" value="&lt;div style=&quot;font-size: 10px;&quot;&gt;&lt;font style=&quot;font-size: 10px;&quot;&gt;Melihat halaman&lt;/font&gt;&lt;/div&gt;&lt;div style=&quot;font-size: 10px;&quot;&gt;&lt;font style=&quot;font-size: 10px;&quot;&gt;pegawai&lt;/font&gt;&lt;/div&gt;" style="rounded=1;whiteSpace=wrap;html=1;fontSize=10;" vertex="1" parent="KR-VjzTQhPIVuxpKv5Yd-2">
          <mxGeometry x="60" y="180" width="100" height="30" as="geometry" />
        </mxCell>
        <mxCell id="KR-VjzTQhPIVuxpKv5Yd-6" style="edgeStyle=orthogonalEdgeStyle;rounded=0;orthogonalLoop=1;jettySize=auto;html=1;" edge="1" parent="KR-VjzTQhPIVuxpKv5Yd-2" source="KR-VjzTQhPIVuxpKv5Yd-7" target="KR-VjzTQhPIVuxpKv5Yd-12">
          <mxGeometry relative="1" as="geometry">
            <Array as="points">
              <mxPoint x="35" y="330" />
              <mxPoint x="36" y="330" />
            </Array>
          </mxGeometry>
        </mxCell>
        <mxCell id="KR-VjzTQhPIVuxpKv5Yd-7" value="&lt;div style=&quot;font-size: 10px;&quot;&gt;&lt;font style=&quot;font-size: 10px;&quot;&gt;Klik tambah&lt;/font&gt;&lt;/div&gt;&lt;div style=&quot;font-size: 10px;&quot;&gt;pegawai&lt;font style=&quot;font-size: 10px;&quot;&gt;&lt;br style=&quot;font-size: 10px;&quot;&gt;&lt;/font&gt;&lt;/div&gt;" style="rounded=1;whiteSpace=wrap;html=1;fontSize=10;" vertex="1" parent="KR-VjzTQhPIVuxpKv5Yd-2">
          <mxGeometry x="12.5" y="280" width="57.5" height="30" as="geometry" />
        </mxCell>
        <mxCell id="KR-VjzTQhPIVuxpKv5Yd-8" style="edgeStyle=orthogonalEdgeStyle;rounded=0;orthogonalLoop=1;jettySize=auto;html=1;" edge="1" parent="KR-VjzTQhPIVuxpKv5Yd-2" source="KR-VjzTQhPIVuxpKv5Yd-9">
          <mxGeometry relative="1" as="geometry">
            <mxPoint x="113.125" y="290" as="targetPoint" />
          </mxGeometry>
        </mxCell>
        <mxCell id="KR-VjzTQhPIVuxpKv5Yd-9" value="&lt;div style=&quot;font-size: 10px;&quot;&gt;&lt;font style=&quot;font-size: 10px;&quot;&gt;Klik hapus&lt;/font&gt;&lt;/div&gt;&lt;div style=&quot;font-size: 10px;&quot;&gt;&lt;font style=&quot;font-size: 10px;&quot;&gt;pegawai&lt;br style=&quot;font-size: 10px;&quot;&gt;&lt;/font&gt;&lt;/div&gt;" style="rounded=1;whiteSpace=wrap;html=1;fontSize=10;" vertex="1" parent="KR-VjzTQhPIVuxpKv5Yd-2">
          <mxGeometry x="86.25" y="280" width="53.75" height="30" as="geometry" />
        </mxCell>
        <mxCell id="KR-VjzTQhPIVuxpKv5Yd-10" value="&lt;div style=&quot;font-size: 10px;&quot;&gt;&lt;font style=&quot;font-size: 10px;&quot;&gt;Klik edit&lt;/font&gt;&lt;/div&gt;&lt;div style=&quot;font-size: 10px;&quot;&gt;pegawai&lt;font style=&quot;font-size: 10px;&quot;&gt;&lt;br style=&quot;font-size: 10px;&quot;&gt;&lt;/font&gt;&lt;/div&gt;" style="rounded=1;whiteSpace=wrap;html=1;fontSize=10;" vertex="1" parent="KR-VjzTQhPIVuxpKv5Yd-2">
          <mxGeometry x="160" y="280" width="47.5" height="30" as="geometry" />
        </mxCell>
        <mxCell id="KR-VjzTQhPIVuxpKv5Yd-11" style="edgeStyle=orthogonalEdgeStyle;rounded=0;orthogonalLoop=1;jettySize=auto;html=1;entryX=0.5;entryY=0;entryDx=0;entryDy=0;" edge="1" parent="KR-VjzTQhPIVuxpKv5Yd-2" source="KR-VjzTQhPIVuxpKv5Yd-12" target="KR-VjzTQhPIVuxpKv5Yd-15">
          <mxGeometry relative="1" as="geometry">
            <Array as="points">
              <mxPoint x="41" y="400" />
              <mxPoint x="41" y="400" />
            </Array>
          </mxGeometry>
        </mxCell>
        <mxCell id="KR-VjzTQhPIVuxpKv5Yd-12" value="&lt;div style=&quot;font-size: 10px;&quot;&gt;&lt;font style=&quot;font-size: 10px;&quot;&gt;Input tambah&lt;/font&gt;&lt;/div&gt;&lt;div style=&quot;font-size: 10px;&quot;&gt;&lt;font style=&quot;font-size: 10px;&quot;&gt;pegawai&lt;br style=&quot;font-size: 10px;&quot;&gt;&lt;/font&gt;&lt;/div&gt;" style="rounded=1;whiteSpace=wrap;html=1;fontSize=10;" vertex="1" parent="KR-VjzTQhPIVuxpKv5Yd-2">
          <mxGeometry x="12.5" y="350" width="67.5" height="30" as="geometry" />
        </mxCell>
        <mxCell id="KR-VjzTQhPIVuxpKv5Yd-13" style="edgeStyle=orthogonalEdgeStyle;rounded=0;orthogonalLoop=1;jettySize=auto;html=1;entryX=0.5;entryY=0;entryDx=0;entryDy=0;fontSize=10;" edge="1" parent="KR-VjzTQhPIVuxpKv5Yd-2" source="KR-VjzTQhPIVuxpKv5Yd-14" target="KR-VjzTQhPIVuxpKv5Yd-16">
          <mxGeometry relative="1" as="geometry" />
        </mxCell>
        <mxCell id="KR-VjzTQhPIVuxpKv5Yd-14" value="&lt;div style=&quot;font-size: 10px;&quot;&gt;&lt;font style=&quot;font-size: 10px;&quot;&gt;Input edit&lt;/font&gt;&lt;/div&gt;&lt;div style=&quot;font-size: 10px;&quot;&gt;pegawai&lt;font style=&quot;font-size: 10px;&quot;&gt;&lt;br style=&quot;font-size: 10px;&quot;&gt;&lt;/font&gt;&lt;/div&gt;" style="rounded=1;whiteSpace=wrap;html=1;fontSize=10;" vertex="1" parent="KR-VjzTQhPIVuxpKv5Yd-2">
          <mxGeometry x="160" y="350" width="47.5" height="30" as="geometry" />
        </mxCell>
        <mxCell id="KR-VjzTQhPIVuxpKv5Yd-15" value="Klik create" style="rounded=1;whiteSpace=wrap;html=1;fontSize=10;" vertex="1" parent="KR-VjzTQhPIVuxpKv5Yd-2">
          <mxGeometry x="12.5" y="410" width="57.5" height="20" as="geometry" />
        </mxCell>
        <mxCell id="KR-VjzTQhPIVuxpKv5Yd-16" value="Klik save" style="rounded=1;whiteSpace=wrap;html=1;fontSize=10;" vertex="1" parent="KR-VjzTQhPIVuxpKv5Yd-2">
          <mxGeometry x="160" y="410" width="47.5" height="20" as="geometry" />
        </mxCell>
        <mxCell id="KR-VjzTQhPIVuxpKv5Yd-17" value="" style="ellipse;html=1;shape=startState;fillColor=#000000;strokeColor=#ff0000;" vertex="1" parent="KR-VjzTQhPIVuxpKv5Yd-2">
          <mxGeometry x="95" y="30" width="30" height="30" as="geometry" />
        </mxCell>
        <mxCell id="KR-VjzTQhPIVuxpKv5Yd-18" value="" style="edgeStyle=orthogonalEdgeStyle;html=1;verticalAlign=bottom;endArrow=open;endSize=8;strokeColor=#ff0000;rounded=0;" edge="1" parent="KR-VjzTQhPIVuxpKv5Yd-2" source="KR-VjzTQhPIVuxpKv5Yd-17">
          <mxGeometry relative="1" as="geometry">
            <mxPoint x="110" y="110" as="targetPoint" />
          </mxGeometry>
        </mxCell>
        <mxCell id="KR-VjzTQhPIVuxpKv5Yd-19" value="" style="shape=line;html=1;strokeWidth=6;strokeColor=#ff0000;" vertex="1" parent="KR-VjzTQhPIVuxpKv5Yd-2">
          <mxGeometry x="13.129999999999995" y="240" width="200" height="10" as="geometry" />
        </mxCell>
        <mxCell id="KR-VjzTQhPIVuxpKv5Yd-20" value="" style="edgeStyle=orthogonalEdgeStyle;html=1;verticalAlign=bottom;endArrow=open;endSize=8;strokeColor=#ff0000;rounded=0;" edge="1" parent="KR-VjzTQhPIVuxpKv5Yd-2" source="KR-VjzTQhPIVuxpKv5Yd-19">
          <mxGeometry relative="1" as="geometry">
            <mxPoint x="113" y="280" as="targetPoint" />
          </mxGeometry>
        </mxCell>
        <mxCell id="KR-VjzTQhPIVuxpKv5Yd-21" value="" style="edgeStyle=orthogonalEdgeStyle;html=1;verticalAlign=bottom;endArrow=open;endSize=8;strokeColor=#ff0000;rounded=0;" edge="1" parent="KR-VjzTQhPIVuxpKv5Yd-2">
          <mxGeometry relative="1" as="geometry">
            <mxPoint x="190" y="280" as="targetPoint" />
            <mxPoint x="190" y="250" as="sourcePoint" />
          </mxGeometry>
        </mxCell>
        <mxCell id="KR-VjzTQhPIVuxpKv5Yd-22" value="" style="edgeStyle=orthogonalEdgeStyle;html=1;verticalAlign=bottom;endArrow=open;endSize=8;strokeColor=#ff0000;rounded=0;exitX=0.135;exitY=0.722;exitDx=0;exitDy=0;exitPerimeter=0;entryX=0.48;entryY=-0.077;entryDx=0;entryDy=0;entryPerimeter=0;" edge="1" parent="KR-VjzTQhPIVuxpKv5Yd-2" source="KR-VjzTQhPIVuxpKv5Yd-19" target="KR-VjzTQhPIVuxpKv5Yd-7">
          <mxGeometry relative="1" as="geometry">
            <mxPoint x="133" y="300" as="targetPoint" />
            <mxPoint x="133" y="270" as="sourcePoint" />
          </mxGeometry>
        </mxCell>
        <mxCell id="KR-VjzTQhPIVuxpKv5Yd-23" value="Sistem" style="swimlane;html=1;startSize=20;" vertex="1" parent="KR-VjzTQhPIVuxpKv5Yd-1">
          <mxGeometry x="220" y="20" width="260" height="700" as="geometry" />
        </mxCell>
        <mxCell id="KR-VjzTQhPIVuxpKv5Yd-24" value="&lt;font style=&quot;font-size: 10px;&quot;&gt;Menampilkan halaman pegawai&lt;/font&gt;" style="rounded=1;whiteSpace=wrap;html=1;fontSize=10;" vertex="1" parent="KR-VjzTQhPIVuxpKv5Yd-23">
          <mxGeometry x="90" y="110" width="110" height="30" as="geometry" />
        </mxCell>
        <mxCell id="KR-VjzTQhPIVuxpKv5Yd-25" style="edgeStyle=orthogonalEdgeStyle;rounded=0;orthogonalLoop=1;jettySize=auto;html=1;" edge="1" parent="KR-VjzTQhPIVuxpKv5Yd-23" source="KR-VjzTQhPIVuxpKv5Yd-26" target="KR-VjzTQhPIVuxpKv5Yd-31">
          <mxGeometry relative="1" as="geometry" />
        </mxCell>
        <mxCell id="KR-VjzTQhPIVuxpKv5Yd-26" value="&lt;font style=&quot;font-size: 10px;&quot;&gt;Menyimpan user&lt;/font&gt;" style="rounded=1;whiteSpace=wrap;html=1;fontSize=10;" vertex="1" parent="KR-VjzTQhPIVuxpKv5Yd-23">
          <mxGeometry x="50" y="520" width="90" height="30" as="geometry" />
        </mxCell>
        <mxCell id="KR-VjzTQhPIVuxpKv5Yd-27" value="&lt;div style=&quot;font-size: 10px;&quot;&gt;Menampilkan&lt;/div&gt;&lt;div style=&quot;font-size: 10px;&quot;&gt;halaman edit pegawai&lt;br style=&quot;font-size: 10px;&quot;&gt;&lt;/div&gt;" style="rounded=1;whiteSpace=wrap;html=1;fontSize=10;" vertex="1" parent="KR-VjzTQhPIVuxpKv5Yd-23">
          <mxGeometry x="30" y="320" width="110" height="30" as="geometry" />
        </mxCell>
        <mxCell id="KR-VjzTQhPIVuxpKv5Yd-28" style="edgeStyle=orthogonalEdgeStyle;rounded=0;orthogonalLoop=1;jettySize=auto;html=1;entryX=0.887;entryY=0.31;entryDx=0;entryDy=0;entryPerimeter=0;" edge="1" parent="KR-VjzTQhPIVuxpKv5Yd-23" source="KR-VjzTQhPIVuxpKv5Yd-30" target="KR-VjzTQhPIVuxpKv5Yd-31">
          <mxGeometry relative="1" as="geometry">
            <mxPoint x="204" y="570" as="targetPoint" />
          </mxGeometry>
        </mxCell>
        <mxCell id="KR-VjzTQhPIVuxpKv5Yd-29" value="Ya" style="edgeLabel;html=1;align=center;verticalAlign=middle;resizable=0;points=[];" vertex="1" connectable="0" parent="KR-VjzTQhPIVuxpKv5Yd-28">
          <mxGeometry x="-0.4462" relative="1" as="geometry">
            <mxPoint as="offset" />
          </mxGeometry>
        </mxCell>
        <mxCell id="KR-VjzTQhPIVuxpKv5Yd-30" value="Pilihan" style="rhombus;whiteSpace=wrap;html=1;" vertex="1" parent="KR-VjzTQhPIVuxpKv5Yd-23">
          <mxGeometry x="170" y="420" width="70" height="70" as="geometry" />
        </mxCell>
        <mxCell id="KR-VjzTQhPIVuxpKv5Yd-31" value="" style="shape=line;html=1;strokeWidth=6;strokeColor=#ff0000;" vertex="1" parent="KR-VjzTQhPIVuxpKv5Yd-23">
          <mxGeometry x="30" y="580" width="200" height="10" as="geometry" />
        </mxCell>
        <mxCell id="KR-VjzTQhPIVuxpKv5Yd-32" value="" style="edgeStyle=orthogonalEdgeStyle;html=1;verticalAlign=bottom;endArrow=open;endSize=8;strokeColor=#ff0000;rounded=0;" edge="1" parent="KR-VjzTQhPIVuxpKv5Yd-23" source="KR-VjzTQhPIVuxpKv5Yd-31">
          <mxGeometry relative="1" as="geometry">
            <mxPoint x="130" y="640" as="targetPoint" />
          </mxGeometry>
        </mxCell>
        <mxCell id="KR-VjzTQhPIVuxpKv5Yd-33" value="" style="ellipse;html=1;shape=endState;fillColor=#000000;strokeColor=#ff0000;" vertex="1" parent="KR-VjzTQhPIVuxpKv5Yd-23">
          <mxGeometry x="115" y="640" width="30" height="30" as="geometry" />
        </mxCell>
        <mxCell id="KR-VjzTQhPIVuxpKv5Yd-34" style="edgeStyle=orthogonalEdgeStyle;rounded=0;orthogonalLoop=1;jettySize=auto;html=1;entryX=0;entryY=0.5;entryDx=0;entryDy=0;" edge="1" parent="KR-VjzTQhPIVuxpKv5Yd-1" source="KR-VjzTQhPIVuxpKv5Yd-3" target="KR-VjzTQhPIVuxpKv5Yd-24">
          <mxGeometry relative="1" as="geometry" />
        </mxCell>
        <mxCell id="KR-VjzTQhPIVuxpKv5Yd-35" style="edgeStyle=orthogonalEdgeStyle;rounded=0;orthogonalLoop=1;jettySize=auto;html=1;entryX=0.504;entryY=0.071;entryDx=0;entryDy=0;entryPerimeter=0;" edge="1" parent="KR-VjzTQhPIVuxpKv5Yd-1" source="KR-VjzTQhPIVuxpKv5Yd-24" target="KR-VjzTQhPIVuxpKv5Yd-5">
          <mxGeometry relative="1" as="geometry">
            <Array as="points">
              <mxPoint x="380" y="180" />
              <mxPoint x="110" y="180" />
              <mxPoint x="110" y="190" />
              <mxPoint x="110" y="190" />
            </Array>
          </mxGeometry>
        </mxCell>
        <mxCell id="KR-VjzTQhPIVuxpKv5Yd-36" style="edgeStyle=orthogonalEdgeStyle;rounded=0;orthogonalLoop=1;jettySize=auto;html=1;entryX=0.011;entryY=0.526;entryDx=0;entryDy=0;entryPerimeter=0;" edge="1" parent="KR-VjzTQhPIVuxpKv5Yd-1" source="KR-VjzTQhPIVuxpKv5Yd-15" target="KR-VjzTQhPIVuxpKv5Yd-26">
          <mxGeometry relative="1" as="geometry">
            <Array as="points">
              <mxPoint x="41" y="555" />
              <mxPoint x="250" y="555" />
            </Array>
          </mxGeometry>
        </mxCell>
        <mxCell id="KR-VjzTQhPIVuxpKv5Yd-37" style="edgeStyle=orthogonalEdgeStyle;rounded=0;orthogonalLoop=1;jettySize=auto;html=1;entryX=0.5;entryY=0;entryDx=0;entryDy=0;" edge="1" parent="KR-VjzTQhPIVuxpKv5Yd-1" source="KR-VjzTQhPIVuxpKv5Yd-10" target="KR-VjzTQhPIVuxpKv5Yd-27">
          <mxGeometry relative="1" as="geometry">
            <mxPoint x="380" y="315" as="targetPoint" />
          </mxGeometry>
        </mxCell>
        <mxCell id="KR-VjzTQhPIVuxpKv5Yd-38" style="edgeStyle=orthogonalEdgeStyle;rounded=0;orthogonalLoop=1;jettySize=auto;html=1;entryX=0.973;entryY=0.613;entryDx=0;entryDy=0;entryPerimeter=0;" edge="1" parent="KR-VjzTQhPIVuxpKv5Yd-1" source="KR-VjzTQhPIVuxpKv5Yd-27" target="KR-VjzTQhPIVuxpKv5Yd-14">
          <mxGeometry relative="1" as="geometry">
            <Array as="points">
              <mxPoint x="300" y="388" />
            </Array>
          </mxGeometry>
        </mxCell>
        <mxCell id="KR-VjzTQhPIVuxpKv5Yd-39" style="edgeStyle=orthogonalEdgeStyle;rounded=0;orthogonalLoop=1;jettySize=auto;html=1;" edge="1" parent="KR-VjzTQhPIVuxpKv5Yd-1" source="KR-VjzTQhPIVuxpKv5Yd-9">
          <mxGeometry relative="1" as="geometry">
            <mxPoint x="390" y="480" as="targetPoint" />
            <Array as="points">
              <mxPoint x="110" y="480" />
            </Array>
          </mxGeometry>
        </mxCell>
        <mxCell id="KR-VjzTQhPIVuxpKv5Yd-40" style="edgeStyle=orthogonalEdgeStyle;rounded=0;orthogonalLoop=1;jettySize=auto;html=1;entryX=1;entryY=0.5;entryDx=0;entryDy=0;" edge="1" parent="KR-VjzTQhPIVuxpKv5Yd-1" source="KR-VjzTQhPIVuxpKv5Yd-30" target="KR-VjzTQhPIVuxpKv5Yd-5">
          <mxGeometry relative="1" as="geometry">
            <Array as="points">
              <mxPoint x="425" y="215" />
            </Array>
          </mxGeometry>
        </mxCell>
        <mxCell id="KR-VjzTQhPIVuxpKv5Yd-41" value="Tidak" style="edgeLabel;html=1;align=center;verticalAlign=middle;resizable=0;points=[];" vertex="1" connectable="0" parent="KR-VjzTQhPIVuxpKv5Yd-40">
          <mxGeometry x="-0.4206" y="1" relative="1" as="geometry">
            <mxPoint as="offset" />
          </mxGeometry>
        </mxCell>
        <mxCell id="KR-VjzTQhPIVuxpKv5Yd-42" style="edgeStyle=orthogonalEdgeStyle;rounded=0;orthogonalLoop=1;jettySize=auto;html=1;entryX=0.5;entryY=0;entryDx=0;entryDy=0;" edge="1" parent="KR-VjzTQhPIVuxpKv5Yd-1" source="KR-VjzTQhPIVuxpKv5Yd-16" target="KR-VjzTQhPIVuxpKv5Yd-26">
          <mxGeometry relative="1" as="geometry" />
        </mxCell>
      </root>
    </mxGraphModel>
  </diagram>
  <diagram id="aqRtXWd4uxqj8tqc_vNX" name="kelolaDokume">
    <mxGraphModel dx="880" dy="450" grid="1" gridSize="10" guides="1" tooltips="1" connect="1" arrows="1" fold="1" page="1" pageScale="1" pageWidth="827" pageHeight="1169" math="0" shadow="0">
      <root>
        <mxCell id="0" />
        <mxCell id="1" parent="0" />
        <mxCell id="FaRtT0VKpayIbsRooOPE-1" value="&lt;font style=&quot;font-size: 9px;&quot;&gt;&lt;b style=&quot;mso-bidi-font-weight:normal&quot;&gt;&lt;i style=&quot;mso-bidi-font-style:normal&quot;&gt;&lt;span style=&quot;font-family: &amp;quot;Times New Roman&amp;quot;, serif;&quot;&gt;Activity Diagram &lt;/span&gt;&lt;/i&gt;&lt;span style=&quot;line-height: 150%; font-family: &amp;quot;Times New Roman&amp;quot;, serif;&quot;&gt;Mengelola&amp;nbsp; Dokumen&lt;/span&gt;&lt;/b&gt;&lt;/font&gt;" style="swimlane;html=1;childLayout=stackLayout;startSize=20;rounded=0;shadow=0;labelBackgroundColor=none;strokeWidth=1;fontFamily=Verdana;fontSize=8;align=center;" vertex="1" parent="1">
          <mxGeometry x="290" y="160" width="480" height="720" as="geometry" />
        </mxCell>
        <mxCell id="FaRtT0VKpayIbsRooOPE-2" value="Admin" style="swimlane;html=1;startSize=20;" vertex="1" parent="FaRtT0VKpayIbsRooOPE-1">
          <mxGeometry y="20" width="220" height="700" as="geometry" />
        </mxCell>
        <mxCell id="FaRtT0VKpayIbsRooOPE-3" value="&lt;font style=&quot;font-size: 10px;&quot;&gt;Pilih Menu Dokumen&lt;/font&gt;" style="rounded=1;whiteSpace=wrap;html=1;fontSize=10;" vertex="1" parent="FaRtT0VKpayIbsRooOPE-2">
          <mxGeometry x="60" y="110" width="100" height="30" as="geometry" />
        </mxCell>
        <mxCell id="FaRtT0VKpayIbsRooOPE-4" style="edgeStyle=orthogonalEdgeStyle;rounded=0;orthogonalLoop=1;jettySize=auto;html=1;" edge="1" parent="FaRtT0VKpayIbsRooOPE-2" source="FaRtT0VKpayIbsRooOPE-5">
          <mxGeometry relative="1" as="geometry">
            <mxPoint x="110" y="240" as="targetPoint" />
          </mxGeometry>
        </mxCell>
        <mxCell id="FaRtT0VKpayIbsRooOPE-5" value="&lt;div style=&quot;font-size: 10px;&quot;&gt;&lt;font style=&quot;font-size: 10px;&quot;&gt;Melihat halaman&lt;/font&gt;&lt;/div&gt;&lt;div style=&quot;font-size: 10px;&quot;&gt;Dokumen&lt;/div&gt;" style="rounded=1;whiteSpace=wrap;html=1;fontSize=10;" vertex="1" parent="FaRtT0VKpayIbsRooOPE-2">
          <mxGeometry x="60" y="180" width="100" height="30" as="geometry" />
        </mxCell>
        <mxCell id="FaRtT0VKpayIbsRooOPE-6" style="edgeStyle=orthogonalEdgeStyle;rounded=0;orthogonalLoop=1;jettySize=auto;html=1;" edge="1" parent="FaRtT0VKpayIbsRooOPE-2" source="FaRtT0VKpayIbsRooOPE-7" target="FaRtT0VKpayIbsRooOPE-12">
          <mxGeometry relative="1" as="geometry">
            <Array as="points">
              <mxPoint x="35" y="330" />
              <mxPoint x="36" y="330" />
            </Array>
          </mxGeometry>
        </mxCell>
        <mxCell id="FaRtT0VKpayIbsRooOPE-7" value="&lt;div style=&quot;font-size: 10px;&quot;&gt;&lt;font style=&quot;font-size: 10px;&quot;&gt;Klik tambah&lt;/font&gt;&lt;/div&gt;&lt;div style=&quot;font-size: 10px;&quot;&gt;Dokumen&lt;font style=&quot;font-size: 10px;&quot;&gt;&lt;br style=&quot;font-size: 10px;&quot;&gt;&lt;/font&gt;&lt;/div&gt;" style="rounded=1;whiteSpace=wrap;html=1;fontSize=10;" vertex="1" parent="FaRtT0VKpayIbsRooOPE-2">
          <mxGeometry x="12.5" y="280" width="63.5" height="30" as="geometry" />
        </mxCell>
        <mxCell id="FaRtT0VKpayIbsRooOPE-8" style="edgeStyle=orthogonalEdgeStyle;rounded=0;orthogonalLoop=1;jettySize=auto;html=1;" edge="1" parent="FaRtT0VKpayIbsRooOPE-2" source="FaRtT0VKpayIbsRooOPE-9">
          <mxGeometry relative="1" as="geometry">
            <mxPoint x="113.125" y="290" as="targetPoint" />
          </mxGeometry>
        </mxCell>
        <mxCell id="FaRtT0VKpayIbsRooOPE-9" value="&lt;div style=&quot;font-size: 10px;&quot;&gt;&lt;font style=&quot;font-size: 10px;&quot;&gt;Klik hapus&lt;/font&gt;&lt;/div&gt;&lt;div style=&quot;font-size: 10px;&quot;&gt;Dokumen&lt;font style=&quot;font-size: 10px;&quot;&gt;&lt;br style=&quot;font-size: 10px;&quot;&gt;&lt;/font&gt;&lt;/div&gt;" style="rounded=1;whiteSpace=wrap;html=1;fontSize=10;" vertex="1" parent="FaRtT0VKpayIbsRooOPE-2">
          <mxGeometry x="86.25" y="280" width="53.75" height="30" as="geometry" />
        </mxCell>
        <mxCell id="FaRtT0VKpayIbsRooOPE-10" value="&lt;div style=&quot;font-size: 10px;&quot;&gt;&lt;font style=&quot;font-size: 10px;&quot;&gt;Klik edit&lt;/font&gt;&lt;/div&gt;&lt;div style=&quot;font-size: 10px;&quot;&gt;Dokumen&lt;font style=&quot;font-size: 10px;&quot;&gt;&lt;br style=&quot;font-size: 10px;&quot;&gt;&lt;/font&gt;&lt;/div&gt;" style="rounded=1;whiteSpace=wrap;html=1;fontSize=10;" vertex="1" parent="FaRtT0VKpayIbsRooOPE-2">
          <mxGeometry x="160" y="280" width="47.5" height="30" as="geometry" />
        </mxCell>
        <mxCell id="FaRtT0VKpayIbsRooOPE-11" style="edgeStyle=orthogonalEdgeStyle;rounded=0;orthogonalLoop=1;jettySize=auto;html=1;entryX=0.5;entryY=0;entryDx=0;entryDy=0;" edge="1" parent="FaRtT0VKpayIbsRooOPE-2" source="FaRtT0VKpayIbsRooOPE-12" target="FaRtT0VKpayIbsRooOPE-15">
          <mxGeometry relative="1" as="geometry">
            <Array as="points">
              <mxPoint x="41" y="400" />
              <mxPoint x="41" y="400" />
            </Array>
          </mxGeometry>
        </mxCell>
        <mxCell id="FaRtT0VKpayIbsRooOPE-12" value="&lt;div style=&quot;font-size: 10px;&quot;&gt;&lt;font style=&quot;font-size: 10px;&quot;&gt;Input tambah&lt;/font&gt;&lt;/div&gt;&lt;div style=&quot;font-size: 10px;&quot;&gt;&lt;font style=&quot;font-size: 10px;&quot;&gt;dokumen&lt;br style=&quot;font-size: 10px;&quot;&gt;&lt;/font&gt;&lt;/div&gt;" style="rounded=1;whiteSpace=wrap;html=1;fontSize=10;" vertex="1" parent="FaRtT0VKpayIbsRooOPE-2">
          <mxGeometry x="12.5" y="350" width="67.5" height="30" as="geometry" />
        </mxCell>
        <mxCell id="FaRtT0VKpayIbsRooOPE-13" style="edgeStyle=orthogonalEdgeStyle;rounded=0;orthogonalLoop=1;jettySize=auto;html=1;entryX=0.5;entryY=0;entryDx=0;entryDy=0;fontSize=10;" edge="1" parent="FaRtT0VKpayIbsRooOPE-2" source="FaRtT0VKpayIbsRooOPE-14" target="FaRtT0VKpayIbsRooOPE-16">
          <mxGeometry relative="1" as="geometry" />
        </mxCell>
        <mxCell id="FaRtT0VKpayIbsRooOPE-14" value="&lt;div style=&quot;font-size: 10px;&quot;&gt;&lt;font style=&quot;font-size: 10px;&quot;&gt;Input edit&lt;/font&gt;&lt;/div&gt;&lt;div style=&quot;font-size: 10px;&quot;&gt;dokumen&lt;font style=&quot;font-size: 10px;&quot;&gt;&lt;br style=&quot;font-size: 10px;&quot;&gt;&lt;/font&gt;&lt;/div&gt;" style="rounded=1;whiteSpace=wrap;html=1;fontSize=10;" vertex="1" parent="FaRtT0VKpayIbsRooOPE-2">
          <mxGeometry x="160" y="350" width="47.5" height="30" as="geometry" />
        </mxCell>
        <mxCell id="FaRtT0VKpayIbsRooOPE-15" value="Klik create" style="rounded=1;whiteSpace=wrap;html=1;fontSize=10;" vertex="1" parent="FaRtT0VKpayIbsRooOPE-2">
          <mxGeometry x="12.5" y="410" width="57.5" height="20" as="geometry" />
        </mxCell>
        <mxCell id="FaRtT0VKpayIbsRooOPE-16" value="Klik save" style="rounded=1;whiteSpace=wrap;html=1;fontSize=10;" vertex="1" parent="FaRtT0VKpayIbsRooOPE-2">
          <mxGeometry x="160" y="410" width="47.5" height="20" as="geometry" />
        </mxCell>
        <mxCell id="FaRtT0VKpayIbsRooOPE-17" value="" style="ellipse;html=1;shape=startState;fillColor=#000000;strokeColor=#ff0000;" vertex="1" parent="FaRtT0VKpayIbsRooOPE-2">
          <mxGeometry x="95" y="30" width="30" height="30" as="geometry" />
        </mxCell>
        <mxCell id="FaRtT0VKpayIbsRooOPE-18" value="" style="edgeStyle=orthogonalEdgeStyle;html=1;verticalAlign=bottom;endArrow=open;endSize=8;strokeColor=#ff0000;rounded=0;" edge="1" parent="FaRtT0VKpayIbsRooOPE-2" source="FaRtT0VKpayIbsRooOPE-17">
          <mxGeometry relative="1" as="geometry">
            <mxPoint x="110" y="110" as="targetPoint" />
          </mxGeometry>
        </mxCell>
        <mxCell id="FaRtT0VKpayIbsRooOPE-19" value="" style="shape=line;html=1;strokeWidth=6;strokeColor=#ff0000;" vertex="1" parent="FaRtT0VKpayIbsRooOPE-2">
          <mxGeometry x="13.129999999999995" y="240" width="200" height="10" as="geometry" />
        </mxCell>
        <mxCell id="FaRtT0VKpayIbsRooOPE-20" value="" style="edgeStyle=orthogonalEdgeStyle;html=1;verticalAlign=bottom;endArrow=open;endSize=8;strokeColor=#ff0000;rounded=0;" edge="1" parent="FaRtT0VKpayIbsRooOPE-2" source="FaRtT0VKpayIbsRooOPE-19">
          <mxGeometry relative="1" as="geometry">
            <mxPoint x="113" y="280" as="targetPoint" />
          </mxGeometry>
        </mxCell>
        <mxCell id="FaRtT0VKpayIbsRooOPE-21" value="" style="edgeStyle=orthogonalEdgeStyle;html=1;verticalAlign=bottom;endArrow=open;endSize=8;strokeColor=#ff0000;rounded=0;" edge="1" parent="FaRtT0VKpayIbsRooOPE-2">
          <mxGeometry relative="1" as="geometry">
            <mxPoint x="190" y="280" as="targetPoint" />
            <mxPoint x="190" y="250" as="sourcePoint" />
          </mxGeometry>
        </mxCell>
        <mxCell id="FaRtT0VKpayIbsRooOPE-22" value="" style="edgeStyle=orthogonalEdgeStyle;html=1;verticalAlign=bottom;endArrow=open;endSize=8;strokeColor=#ff0000;rounded=0;exitX=0.135;exitY=0.722;exitDx=0;exitDy=0;exitPerimeter=0;entryX=0.48;entryY=-0.077;entryDx=0;entryDy=0;entryPerimeter=0;" edge="1" parent="FaRtT0VKpayIbsRooOPE-2" source="FaRtT0VKpayIbsRooOPE-19" target="FaRtT0VKpayIbsRooOPE-7">
          <mxGeometry relative="1" as="geometry">
            <mxPoint x="133" y="300" as="targetPoint" />
            <mxPoint x="133" y="270" as="sourcePoint" />
          </mxGeometry>
        </mxCell>
        <mxCell id="FaRtT0VKpayIbsRooOPE-23" value="Sistem" style="swimlane;html=1;startSize=20;" vertex="1" parent="FaRtT0VKpayIbsRooOPE-1">
          <mxGeometry x="220" y="20" width="260" height="700" as="geometry" />
        </mxCell>
        <mxCell id="FaRtT0VKpayIbsRooOPE-24" value="&lt;font style=&quot;font-size: 10px;&quot;&gt;Menampilkan halaman Dokumen&lt;/font&gt;" style="rounded=1;whiteSpace=wrap;html=1;fontSize=10;" vertex="1" parent="FaRtT0VKpayIbsRooOPE-23">
          <mxGeometry x="90" y="110" width="110" height="30" as="geometry" />
        </mxCell>
        <mxCell id="FaRtT0VKpayIbsRooOPE-25" style="edgeStyle=orthogonalEdgeStyle;rounded=0;orthogonalLoop=1;jettySize=auto;html=1;" edge="1" parent="FaRtT0VKpayIbsRooOPE-23" source="FaRtT0VKpayIbsRooOPE-26" target="FaRtT0VKpayIbsRooOPE-31">
          <mxGeometry relative="1" as="geometry" />
        </mxCell>
        <mxCell id="FaRtT0VKpayIbsRooOPE-26" value="&lt;font style=&quot;font-size: 10px;&quot;&gt;Menyimpan dokumen&lt;/font&gt;" style="rounded=1;whiteSpace=wrap;html=1;fontSize=10;" vertex="1" parent="FaRtT0VKpayIbsRooOPE-23">
          <mxGeometry x="50" y="520" width="90" height="30" as="geometry" />
        </mxCell>
        <mxCell id="FaRtT0VKpayIbsRooOPE-27" value="&lt;div style=&quot;font-size: 10px;&quot;&gt;Menampilkan&lt;/div&gt;&lt;div style=&quot;font-size: 10px;&quot;&gt;halaman edit Dokumen&lt;br style=&quot;font-size: 10px;&quot;&gt;&lt;/div&gt;" style="rounded=1;whiteSpace=wrap;html=1;fontSize=10;" vertex="1" parent="FaRtT0VKpayIbsRooOPE-23">
          <mxGeometry x="30" y="320" width="120" height="30" as="geometry" />
        </mxCell>
        <mxCell id="FaRtT0VKpayIbsRooOPE-28" style="edgeStyle=orthogonalEdgeStyle;rounded=0;orthogonalLoop=1;jettySize=auto;html=1;entryX=0.887;entryY=0.31;entryDx=0;entryDy=0;entryPerimeter=0;" edge="1" parent="FaRtT0VKpayIbsRooOPE-23" source="FaRtT0VKpayIbsRooOPE-30" target="FaRtT0VKpayIbsRooOPE-31">
          <mxGeometry relative="1" as="geometry">
            <mxPoint x="204" y="570" as="targetPoint" />
          </mxGeometry>
        </mxCell>
        <mxCell id="FaRtT0VKpayIbsRooOPE-29" value="Ya" style="edgeLabel;html=1;align=center;verticalAlign=middle;resizable=0;points=[];" vertex="1" connectable="0" parent="FaRtT0VKpayIbsRooOPE-28">
          <mxGeometry x="-0.4462" relative="1" as="geometry">
            <mxPoint as="offset" />
          </mxGeometry>
        </mxCell>
        <mxCell id="FaRtT0VKpayIbsRooOPE-30" value="Pilihan" style="rhombus;whiteSpace=wrap;html=1;" vertex="1" parent="FaRtT0VKpayIbsRooOPE-23">
          <mxGeometry x="170" y="420" width="70" height="70" as="geometry" />
        </mxCell>
        <mxCell id="FaRtT0VKpayIbsRooOPE-31" value="" style="shape=line;html=1;strokeWidth=6;strokeColor=#ff0000;" vertex="1" parent="FaRtT0VKpayIbsRooOPE-23">
          <mxGeometry x="30" y="580" width="200" height="10" as="geometry" />
        </mxCell>
        <mxCell id="FaRtT0VKpayIbsRooOPE-32" value="" style="edgeStyle=orthogonalEdgeStyle;html=1;verticalAlign=bottom;endArrow=open;endSize=8;strokeColor=#ff0000;rounded=0;" edge="1" parent="FaRtT0VKpayIbsRooOPE-23" source="FaRtT0VKpayIbsRooOPE-31">
          <mxGeometry relative="1" as="geometry">
            <mxPoint x="130" y="640" as="targetPoint" />
          </mxGeometry>
        </mxCell>
        <mxCell id="FaRtT0VKpayIbsRooOPE-33" value="" style="ellipse;html=1;shape=endState;fillColor=#000000;strokeColor=#ff0000;" vertex="1" parent="FaRtT0VKpayIbsRooOPE-23">
          <mxGeometry x="115" y="640" width="30" height="30" as="geometry" />
        </mxCell>
        <mxCell id="FaRtT0VKpayIbsRooOPE-34" style="edgeStyle=orthogonalEdgeStyle;rounded=0;orthogonalLoop=1;jettySize=auto;html=1;entryX=0;entryY=0.5;entryDx=0;entryDy=0;" edge="1" parent="FaRtT0VKpayIbsRooOPE-1" source="FaRtT0VKpayIbsRooOPE-3" target="FaRtT0VKpayIbsRooOPE-24">
          <mxGeometry relative="1" as="geometry" />
        </mxCell>
        <mxCell id="FaRtT0VKpayIbsRooOPE-35" style="edgeStyle=orthogonalEdgeStyle;rounded=0;orthogonalLoop=1;jettySize=auto;html=1;entryX=0.504;entryY=0.071;entryDx=0;entryDy=0;entryPerimeter=0;" edge="1" parent="FaRtT0VKpayIbsRooOPE-1" source="FaRtT0VKpayIbsRooOPE-24" target="FaRtT0VKpayIbsRooOPE-5">
          <mxGeometry relative="1" as="geometry">
            <Array as="points">
              <mxPoint x="380" y="180" />
              <mxPoint x="110" y="180" />
              <mxPoint x="110" y="190" />
              <mxPoint x="110" y="190" />
            </Array>
          </mxGeometry>
        </mxCell>
        <mxCell id="FaRtT0VKpayIbsRooOPE-36" style="edgeStyle=orthogonalEdgeStyle;rounded=0;orthogonalLoop=1;jettySize=auto;html=1;entryX=0.011;entryY=0.526;entryDx=0;entryDy=0;entryPerimeter=0;" edge="1" parent="FaRtT0VKpayIbsRooOPE-1" source="FaRtT0VKpayIbsRooOPE-15" target="FaRtT0VKpayIbsRooOPE-26">
          <mxGeometry relative="1" as="geometry">
            <Array as="points">
              <mxPoint x="41" y="555" />
              <mxPoint x="250" y="555" />
            </Array>
          </mxGeometry>
        </mxCell>
        <mxCell id="FaRtT0VKpayIbsRooOPE-37" style="edgeStyle=orthogonalEdgeStyle;rounded=0;orthogonalLoop=1;jettySize=auto;html=1;entryX=0.5;entryY=0;entryDx=0;entryDy=0;" edge="1" parent="FaRtT0VKpayIbsRooOPE-1" source="FaRtT0VKpayIbsRooOPE-10" target="FaRtT0VKpayIbsRooOPE-27">
          <mxGeometry relative="1" as="geometry">
            <mxPoint x="380" y="315" as="targetPoint" />
          </mxGeometry>
        </mxCell>
        <mxCell id="FaRtT0VKpayIbsRooOPE-38" style="edgeStyle=orthogonalEdgeStyle;rounded=0;orthogonalLoop=1;jettySize=auto;html=1;entryX=0.973;entryY=0.613;entryDx=0;entryDy=0;entryPerimeter=0;" edge="1" parent="FaRtT0VKpayIbsRooOPE-1" source="FaRtT0VKpayIbsRooOPE-27" target="FaRtT0VKpayIbsRooOPE-14">
          <mxGeometry relative="1" as="geometry">
            <Array as="points">
              <mxPoint x="300" y="388" />
            </Array>
          </mxGeometry>
        </mxCell>
        <mxCell id="FaRtT0VKpayIbsRooOPE-39" style="edgeStyle=orthogonalEdgeStyle;rounded=0;orthogonalLoop=1;jettySize=auto;html=1;" edge="1" parent="FaRtT0VKpayIbsRooOPE-1" source="FaRtT0VKpayIbsRooOPE-9">
          <mxGeometry relative="1" as="geometry">
            <mxPoint x="390" y="480" as="targetPoint" />
            <Array as="points">
              <mxPoint x="110" y="480" />
            </Array>
          </mxGeometry>
        </mxCell>
        <mxCell id="FaRtT0VKpayIbsRooOPE-40" style="edgeStyle=orthogonalEdgeStyle;rounded=0;orthogonalLoop=1;jettySize=auto;html=1;entryX=1;entryY=0.5;entryDx=0;entryDy=0;" edge="1" parent="FaRtT0VKpayIbsRooOPE-1" source="FaRtT0VKpayIbsRooOPE-30" target="FaRtT0VKpayIbsRooOPE-5">
          <mxGeometry relative="1" as="geometry">
            <Array as="points">
              <mxPoint x="425" y="215" />
            </Array>
          </mxGeometry>
        </mxCell>
        <mxCell id="FaRtT0VKpayIbsRooOPE-41" value="Tidak" style="edgeLabel;html=1;align=center;verticalAlign=middle;resizable=0;points=[];" vertex="1" connectable="0" parent="FaRtT0VKpayIbsRooOPE-40">
          <mxGeometry x="-0.4206" y="1" relative="1" as="geometry">
            <mxPoint as="offset" />
          </mxGeometry>
        </mxCell>
        <mxCell id="FaRtT0VKpayIbsRooOPE-42" style="edgeStyle=orthogonalEdgeStyle;rounded=0;orthogonalLoop=1;jettySize=auto;html=1;entryX=0.5;entryY=0;entryDx=0;entryDy=0;" edge="1" parent="FaRtT0VKpayIbsRooOPE-1" source="FaRtT0VKpayIbsRooOPE-16" target="FaRtT0VKpayIbsRooOPE-26">
          <mxGeometry relative="1" as="geometry" />
        </mxCell>
      </root>
    </mxGraphModel>
  </diagram>
  <diagram id="5ds0RRN3SmVtfatTfwHL" name="kategori">
    <mxGraphModel dx="1354" dy="692" grid="1" gridSize="10" guides="1" tooltips="1" connect="1" arrows="1" fold="1" page="1" pageScale="1" pageWidth="827" pageHeight="1169" math="0" shadow="0">
      <root>
        <mxCell id="0" />
        <mxCell id="1" parent="0" />
        <mxCell id="d9xRhNfL5X-4K0_8_Pme-1" value="&lt;font style=&quot;font-size: 9px;&quot;&gt;&lt;b style=&quot;mso-bidi-font-weight:normal&quot;&gt;&lt;i style=&quot;mso-bidi-font-style:normal&quot;&gt;&lt;span style=&quot;font-family: &amp;quot;Times New Roman&amp;quot;, serif;&quot;&gt;Activity Diagram &lt;/span&gt;&lt;/i&gt;&lt;span style=&quot;line-height: 150%; font-family: &amp;quot;Times New Roman&amp;quot;, serif;&quot;&gt;Mengelola&amp;nbsp; Kategori &lt;br&gt;&lt;/span&gt;&lt;/b&gt;&lt;/font&gt;" style="swimlane;html=1;childLayout=stackLayout;startSize=20;rounded=0;shadow=0;labelBackgroundColor=none;strokeWidth=1;fontFamily=Verdana;fontSize=8;align=center;" vertex="1" parent="1">
          <mxGeometry x="280" y="20" width="480" height="720" as="geometry" />
        </mxCell>
        <mxCell id="d9xRhNfL5X-4K0_8_Pme-2" value="Admin" style="swimlane;html=1;startSize=20;" vertex="1" parent="d9xRhNfL5X-4K0_8_Pme-1">
          <mxGeometry y="20" width="220" height="700" as="geometry" />
        </mxCell>
        <mxCell id="d9xRhNfL5X-4K0_8_Pme-3" value="&lt;font style=&quot;font-size: 10px;&quot;&gt;Pilih Menu Kategori &lt;br&gt;&lt;/font&gt;" style="rounded=1;whiteSpace=wrap;html=1;fontSize=10;" vertex="1" parent="d9xRhNfL5X-4K0_8_Pme-2">
          <mxGeometry x="60" y="110" width="100" height="30" as="geometry" />
        </mxCell>
        <mxCell id="d9xRhNfL5X-4K0_8_Pme-4" style="edgeStyle=orthogonalEdgeStyle;rounded=0;orthogonalLoop=1;jettySize=auto;html=1;" edge="1" parent="d9xRhNfL5X-4K0_8_Pme-2" source="d9xRhNfL5X-4K0_8_Pme-5">
          <mxGeometry relative="1" as="geometry">
            <mxPoint x="110" y="240" as="targetPoint" />
          </mxGeometry>
        </mxCell>
        <mxCell id="d9xRhNfL5X-4K0_8_Pme-5" value="&lt;div style=&quot;font-size: 10px;&quot;&gt;&lt;font style=&quot;font-size: 10px;&quot;&gt;Melihat halaman&lt;/font&gt;&lt;/div&gt;&lt;div style=&quot;font-size: 10px;&quot;&gt;Kategori&lt;br&gt;&lt;/div&gt;" style="rounded=1;whiteSpace=wrap;html=1;fontSize=10;" vertex="1" parent="d9xRhNfL5X-4K0_8_Pme-2">
          <mxGeometry x="60" y="180" width="100" height="30" as="geometry" />
        </mxCell>
        <mxCell id="d9xRhNfL5X-4K0_8_Pme-6" style="edgeStyle=orthogonalEdgeStyle;rounded=0;orthogonalLoop=1;jettySize=auto;html=1;" edge="1" parent="d9xRhNfL5X-4K0_8_Pme-2" source="d9xRhNfL5X-4K0_8_Pme-7" target="d9xRhNfL5X-4K0_8_Pme-12">
          <mxGeometry relative="1" as="geometry">
            <Array as="points">
              <mxPoint x="35" y="330" />
              <mxPoint x="36" y="330" />
            </Array>
          </mxGeometry>
        </mxCell>
        <mxCell id="d9xRhNfL5X-4K0_8_Pme-7" value="&lt;div style=&quot;font-size: 10px;&quot;&gt;&lt;font style=&quot;font-size: 10px;&quot;&gt;Klik tambah&lt;/font&gt;&lt;/div&gt;&lt;div style=&quot;font-size: 10px;&quot;&gt;Kategori&lt;font style=&quot;font-size: 10px;&quot;&gt;&lt;br style=&quot;font-size: 10px;&quot;&gt;&lt;/font&gt;&lt;/div&gt;" style="rounded=1;whiteSpace=wrap;html=1;fontSize=10;" vertex="1" parent="d9xRhNfL5X-4K0_8_Pme-2">
          <mxGeometry x="12.5" y="280" width="63.5" height="30" as="geometry" />
        </mxCell>
        <mxCell id="d9xRhNfL5X-4K0_8_Pme-8" style="edgeStyle=orthogonalEdgeStyle;rounded=0;orthogonalLoop=1;jettySize=auto;html=1;" edge="1" parent="d9xRhNfL5X-4K0_8_Pme-2" source="d9xRhNfL5X-4K0_8_Pme-9">
          <mxGeometry relative="1" as="geometry">
            <mxPoint x="113.125" y="290" as="targetPoint" />
          </mxGeometry>
        </mxCell>
        <mxCell id="d9xRhNfL5X-4K0_8_Pme-9" value="&lt;div style=&quot;font-size: 10px;&quot;&gt;&lt;font style=&quot;font-size: 10px;&quot;&gt;Klik hapus&lt;/font&gt;&lt;/div&gt;&lt;div style=&quot;font-size: 10px;&quot;&gt;Kategori&lt;font style=&quot;font-size: 10px;&quot;&gt;&lt;br style=&quot;font-size: 10px;&quot;&gt;&lt;/font&gt;&lt;/div&gt;" style="rounded=1;whiteSpace=wrap;html=1;fontSize=10;" vertex="1" parent="d9xRhNfL5X-4K0_8_Pme-2">
          <mxGeometry x="86.25" y="280" width="53.75" height="30" as="geometry" />
        </mxCell>
        <mxCell id="d9xRhNfL5X-4K0_8_Pme-10" value="&lt;div style=&quot;font-size: 10px;&quot;&gt;&lt;font style=&quot;font-size: 10px;&quot;&gt;Klik edit&lt;/font&gt;&lt;/div&gt;&lt;div style=&quot;font-size: 10px;&quot;&gt;Kategori&lt;font style=&quot;font-size: 10px;&quot;&gt;&lt;br style=&quot;font-size: 10px;&quot;&gt;&lt;/font&gt;&lt;/div&gt;" style="rounded=1;whiteSpace=wrap;html=1;fontSize=10;" vertex="1" parent="d9xRhNfL5X-4K0_8_Pme-2">
          <mxGeometry x="160" y="280" width="47.5" height="30" as="geometry" />
        </mxCell>
        <mxCell id="d9xRhNfL5X-4K0_8_Pme-11" style="edgeStyle=orthogonalEdgeStyle;rounded=0;orthogonalLoop=1;jettySize=auto;html=1;entryX=0.5;entryY=0;entryDx=0;entryDy=0;" edge="1" parent="d9xRhNfL5X-4K0_8_Pme-2" source="d9xRhNfL5X-4K0_8_Pme-12" target="d9xRhNfL5X-4K0_8_Pme-15">
          <mxGeometry relative="1" as="geometry">
            <Array as="points">
              <mxPoint x="41" y="400" />
              <mxPoint x="41" y="400" />
            </Array>
          </mxGeometry>
        </mxCell>
        <mxCell id="d9xRhNfL5X-4K0_8_Pme-12" value="&lt;div style=&quot;font-size: 10px;&quot;&gt;&lt;font style=&quot;font-size: 10px;&quot;&gt;Input tambah&lt;/font&gt;&lt;/div&gt;&lt;div style=&quot;font-size: 10px;&quot;&gt;Kategori&lt;font style=&quot;font-size: 10px;&quot;&gt;&lt;br style=&quot;font-size: 10px;&quot;&gt;&lt;/font&gt;&lt;/div&gt;" style="rounded=1;whiteSpace=wrap;html=1;fontSize=10;" vertex="1" parent="d9xRhNfL5X-4K0_8_Pme-2">
          <mxGeometry x="12.5" y="350" width="67.5" height="30" as="geometry" />
        </mxCell>
        <mxCell id="d9xRhNfL5X-4K0_8_Pme-13" style="edgeStyle=orthogonalEdgeStyle;rounded=0;orthogonalLoop=1;jettySize=auto;html=1;entryX=0.5;entryY=0;entryDx=0;entryDy=0;fontSize=10;" edge="1" parent="d9xRhNfL5X-4K0_8_Pme-2" source="d9xRhNfL5X-4K0_8_Pme-14" target="d9xRhNfL5X-4K0_8_Pme-16">
          <mxGeometry relative="1" as="geometry" />
        </mxCell>
        <mxCell id="d9xRhNfL5X-4K0_8_Pme-14" value="&lt;div style=&quot;font-size: 10px;&quot;&gt;&lt;font style=&quot;font-size: 10px;&quot;&gt;Input edit&lt;/font&gt;&lt;/div&gt;&lt;div style=&quot;font-size: 10px;&quot;&gt;Kategori&lt;font style=&quot;font-size: 10px;&quot;&gt;&lt;br style=&quot;font-size: 10px;&quot;&gt;&lt;/font&gt;&lt;/div&gt;" style="rounded=1;whiteSpace=wrap;html=1;fontSize=10;" vertex="1" parent="d9xRhNfL5X-4K0_8_Pme-2">
          <mxGeometry x="160" y="350" width="47.5" height="30" as="geometry" />
        </mxCell>
        <mxCell id="d9xRhNfL5X-4K0_8_Pme-15" value="Klik create" style="rounded=1;whiteSpace=wrap;html=1;fontSize=10;" vertex="1" parent="d9xRhNfL5X-4K0_8_Pme-2">
          <mxGeometry x="12.5" y="410" width="57.5" height="20" as="geometry" />
        </mxCell>
        <mxCell id="d9xRhNfL5X-4K0_8_Pme-16" value="Klik save" style="rounded=1;whiteSpace=wrap;html=1;fontSize=10;" vertex="1" parent="d9xRhNfL5X-4K0_8_Pme-2">
          <mxGeometry x="160" y="410" width="47.5" height="20" as="geometry" />
        </mxCell>
        <mxCell id="d9xRhNfL5X-4K0_8_Pme-17" value="" style="ellipse;html=1;shape=startState;fillColor=#000000;strokeColor=#ff0000;" vertex="1" parent="d9xRhNfL5X-4K0_8_Pme-2">
          <mxGeometry x="95" y="30" width="30" height="30" as="geometry" />
        </mxCell>
        <mxCell id="d9xRhNfL5X-4K0_8_Pme-18" value="" style="edgeStyle=orthogonalEdgeStyle;html=1;verticalAlign=bottom;endArrow=open;endSize=8;strokeColor=#ff0000;rounded=0;" edge="1" parent="d9xRhNfL5X-4K0_8_Pme-2" source="d9xRhNfL5X-4K0_8_Pme-17">
          <mxGeometry relative="1" as="geometry">
            <mxPoint x="110" y="110" as="targetPoint" />
          </mxGeometry>
        </mxCell>
        <mxCell id="d9xRhNfL5X-4K0_8_Pme-19" value="" style="shape=line;html=1;strokeWidth=6;strokeColor=#ff0000;" vertex="1" parent="d9xRhNfL5X-4K0_8_Pme-2">
          <mxGeometry x="13.129999999999995" y="240" width="200" height="10" as="geometry" />
        </mxCell>
        <mxCell id="d9xRhNfL5X-4K0_8_Pme-20" value="" style="edgeStyle=orthogonalEdgeStyle;html=1;verticalAlign=bottom;endArrow=open;endSize=8;strokeColor=#ff0000;rounded=0;" edge="1" parent="d9xRhNfL5X-4K0_8_Pme-2" source="d9xRhNfL5X-4K0_8_Pme-19">
          <mxGeometry relative="1" as="geometry">
            <mxPoint x="113" y="280" as="targetPoint" />
          </mxGeometry>
        </mxCell>
        <mxCell id="d9xRhNfL5X-4K0_8_Pme-21" value="" style="edgeStyle=orthogonalEdgeStyle;html=1;verticalAlign=bottom;endArrow=open;endSize=8;strokeColor=#ff0000;rounded=0;" edge="1" parent="d9xRhNfL5X-4K0_8_Pme-2">
          <mxGeometry relative="1" as="geometry">
            <mxPoint x="190" y="280" as="targetPoint" />
            <mxPoint x="190" y="250" as="sourcePoint" />
          </mxGeometry>
        </mxCell>
        <mxCell id="d9xRhNfL5X-4K0_8_Pme-22" value="" style="edgeStyle=orthogonalEdgeStyle;html=1;verticalAlign=bottom;endArrow=open;endSize=8;strokeColor=#ff0000;rounded=0;exitX=0.135;exitY=0.722;exitDx=0;exitDy=0;exitPerimeter=0;entryX=0.48;entryY=-0.077;entryDx=0;entryDy=0;entryPerimeter=0;" edge="1" parent="d9xRhNfL5X-4K0_8_Pme-2" source="d9xRhNfL5X-4K0_8_Pme-19" target="d9xRhNfL5X-4K0_8_Pme-7">
          <mxGeometry relative="1" as="geometry">
            <mxPoint x="133" y="300" as="targetPoint" />
            <mxPoint x="133" y="270" as="sourcePoint" />
          </mxGeometry>
        </mxCell>
        <mxCell id="d9xRhNfL5X-4K0_8_Pme-23" value="Sistem" style="swimlane;html=1;startSize=20;" vertex="1" parent="d9xRhNfL5X-4K0_8_Pme-1">
          <mxGeometry x="220" y="20" width="260" height="700" as="geometry" />
        </mxCell>
        <mxCell id="d9xRhNfL5X-4K0_8_Pme-24" value="&lt;font style=&quot;font-size: 10px;&quot;&gt;Menampilkan halaman Kategori&lt;br&gt;&lt;/font&gt;" style="rounded=1;whiteSpace=wrap;html=1;fontSize=10;" vertex="1" parent="d9xRhNfL5X-4K0_8_Pme-23">
          <mxGeometry x="90" y="110" width="120" height="30" as="geometry" />
        </mxCell>
        <mxCell id="d9xRhNfL5X-4K0_8_Pme-25" style="edgeStyle=orthogonalEdgeStyle;rounded=0;orthogonalLoop=1;jettySize=auto;html=1;" edge="1" parent="d9xRhNfL5X-4K0_8_Pme-23" source="d9xRhNfL5X-4K0_8_Pme-26" target="d9xRhNfL5X-4K0_8_Pme-31">
          <mxGeometry relative="1" as="geometry" />
        </mxCell>
        <mxCell id="d9xRhNfL5X-4K0_8_Pme-26" value="&lt;font style=&quot;font-size: 10px;&quot;&gt;Menyimpan kategori&lt;/font&gt;" style="rounded=1;whiteSpace=wrap;html=1;fontSize=10;" vertex="1" parent="d9xRhNfL5X-4K0_8_Pme-23">
          <mxGeometry x="50" y="520" width="90" height="30" as="geometry" />
        </mxCell>
        <mxCell id="d9xRhNfL5X-4K0_8_Pme-27" value="&lt;div style=&quot;font-size: 10px;&quot;&gt;Menampilkan&lt;/div&gt;&lt;div style=&quot;font-size: 10px;&quot;&gt;halaman edit Kategori&lt;br style=&quot;font-size: 10px;&quot;&gt;&lt;/div&gt;" style="rounded=1;whiteSpace=wrap;html=1;fontSize=10;" vertex="1" parent="d9xRhNfL5X-4K0_8_Pme-23">
          <mxGeometry x="30" y="320" width="120" height="30" as="geometry" />
        </mxCell>
        <mxCell id="d9xRhNfL5X-4K0_8_Pme-28" style="edgeStyle=orthogonalEdgeStyle;rounded=0;orthogonalLoop=1;jettySize=auto;html=1;entryX=0.887;entryY=0.31;entryDx=0;entryDy=0;entryPerimeter=0;" edge="1" parent="d9xRhNfL5X-4K0_8_Pme-23" source="d9xRhNfL5X-4K0_8_Pme-30" target="d9xRhNfL5X-4K0_8_Pme-31">
          <mxGeometry relative="1" as="geometry">
            <mxPoint x="204" y="570" as="targetPoint" />
          </mxGeometry>
        </mxCell>
        <mxCell id="d9xRhNfL5X-4K0_8_Pme-29" value="Ya" style="edgeLabel;html=1;align=center;verticalAlign=middle;resizable=0;points=[];" vertex="1" connectable="0" parent="d9xRhNfL5X-4K0_8_Pme-28">
          <mxGeometry x="-0.4462" relative="1" as="geometry">
            <mxPoint as="offset" />
          </mxGeometry>
        </mxCell>
        <mxCell id="d9xRhNfL5X-4K0_8_Pme-30" value="Pilihan" style="rhombus;whiteSpace=wrap;html=1;" vertex="1" parent="d9xRhNfL5X-4K0_8_Pme-23">
          <mxGeometry x="170" y="420" width="70" height="70" as="geometry" />
        </mxCell>
        <mxCell id="d9xRhNfL5X-4K0_8_Pme-31" value="" style="shape=line;html=1;strokeWidth=6;strokeColor=#ff0000;" vertex="1" parent="d9xRhNfL5X-4K0_8_Pme-23">
          <mxGeometry x="30" y="580" width="200" height="10" as="geometry" />
        </mxCell>
        <mxCell id="d9xRhNfL5X-4K0_8_Pme-32" value="" style="edgeStyle=orthogonalEdgeStyle;html=1;verticalAlign=bottom;endArrow=open;endSize=8;strokeColor=#ff0000;rounded=0;" edge="1" parent="d9xRhNfL5X-4K0_8_Pme-23" source="d9xRhNfL5X-4K0_8_Pme-31">
          <mxGeometry relative="1" as="geometry">
            <mxPoint x="130" y="640" as="targetPoint" />
          </mxGeometry>
        </mxCell>
        <mxCell id="d9xRhNfL5X-4K0_8_Pme-33" value="" style="ellipse;html=1;shape=endState;fillColor=#000000;strokeColor=#ff0000;" vertex="1" parent="d9xRhNfL5X-4K0_8_Pme-23">
          <mxGeometry x="115" y="640" width="30" height="30" as="geometry" />
        </mxCell>
        <mxCell id="d9xRhNfL5X-4K0_8_Pme-34" style="edgeStyle=orthogonalEdgeStyle;rounded=0;orthogonalLoop=1;jettySize=auto;html=1;entryX=0;entryY=0.5;entryDx=0;entryDy=0;" edge="1" parent="d9xRhNfL5X-4K0_8_Pme-1" source="d9xRhNfL5X-4K0_8_Pme-3" target="d9xRhNfL5X-4K0_8_Pme-24">
          <mxGeometry relative="1" as="geometry" />
        </mxCell>
        <mxCell id="d9xRhNfL5X-4K0_8_Pme-35" style="edgeStyle=orthogonalEdgeStyle;rounded=0;orthogonalLoop=1;jettySize=auto;html=1;entryX=0.504;entryY=0.071;entryDx=0;entryDy=0;entryPerimeter=0;" edge="1" parent="d9xRhNfL5X-4K0_8_Pme-1" source="d9xRhNfL5X-4K0_8_Pme-24" target="d9xRhNfL5X-4K0_8_Pme-5">
          <mxGeometry relative="1" as="geometry">
            <Array as="points">
              <mxPoint x="380" y="180" />
              <mxPoint x="110" y="180" />
              <mxPoint x="110" y="190" />
              <mxPoint x="110" y="190" />
            </Array>
          </mxGeometry>
        </mxCell>
        <mxCell id="d9xRhNfL5X-4K0_8_Pme-36" style="edgeStyle=orthogonalEdgeStyle;rounded=0;orthogonalLoop=1;jettySize=auto;html=1;entryX=0.011;entryY=0.526;entryDx=0;entryDy=0;entryPerimeter=0;" edge="1" parent="d9xRhNfL5X-4K0_8_Pme-1" source="d9xRhNfL5X-4K0_8_Pme-15" target="d9xRhNfL5X-4K0_8_Pme-26">
          <mxGeometry relative="1" as="geometry">
            <Array as="points">
              <mxPoint x="41" y="555" />
              <mxPoint x="250" y="555" />
            </Array>
          </mxGeometry>
        </mxCell>
        <mxCell id="d9xRhNfL5X-4K0_8_Pme-37" style="edgeStyle=orthogonalEdgeStyle;rounded=0;orthogonalLoop=1;jettySize=auto;html=1;entryX=0.5;entryY=0;entryDx=0;entryDy=0;" edge="1" parent="d9xRhNfL5X-4K0_8_Pme-1" source="d9xRhNfL5X-4K0_8_Pme-10" target="d9xRhNfL5X-4K0_8_Pme-27">
          <mxGeometry relative="1" as="geometry">
            <mxPoint x="380" y="315" as="targetPoint" />
          </mxGeometry>
        </mxCell>
        <mxCell id="d9xRhNfL5X-4K0_8_Pme-38" style="edgeStyle=orthogonalEdgeStyle;rounded=0;orthogonalLoop=1;jettySize=auto;html=1;entryX=0.973;entryY=0.613;entryDx=0;entryDy=0;entryPerimeter=0;" edge="1" parent="d9xRhNfL5X-4K0_8_Pme-1" source="d9xRhNfL5X-4K0_8_Pme-27" target="d9xRhNfL5X-4K0_8_Pme-14">
          <mxGeometry relative="1" as="geometry">
            <Array as="points">
              <mxPoint x="300" y="388" />
            </Array>
          </mxGeometry>
        </mxCell>
        <mxCell id="d9xRhNfL5X-4K0_8_Pme-39" style="edgeStyle=orthogonalEdgeStyle;rounded=0;orthogonalLoop=1;jettySize=auto;html=1;" edge="1" parent="d9xRhNfL5X-4K0_8_Pme-1" source="d9xRhNfL5X-4K0_8_Pme-9">
          <mxGeometry relative="1" as="geometry">
            <mxPoint x="390" y="480" as="targetPoint" />
            <Array as="points">
              <mxPoint x="110" y="480" />
            </Array>
          </mxGeometry>
        </mxCell>
        <mxCell id="d9xRhNfL5X-4K0_8_Pme-40" style="edgeStyle=orthogonalEdgeStyle;rounded=0;orthogonalLoop=1;jettySize=auto;html=1;entryX=1;entryY=0.5;entryDx=0;entryDy=0;" edge="1" parent="d9xRhNfL5X-4K0_8_Pme-1" source="d9xRhNfL5X-4K0_8_Pme-30" target="d9xRhNfL5X-4K0_8_Pme-5">
          <mxGeometry relative="1" as="geometry">
            <Array as="points">
              <mxPoint x="425" y="215" />
            </Array>
          </mxGeometry>
        </mxCell>
        <mxCell id="d9xRhNfL5X-4K0_8_Pme-41" value="Tidak" style="edgeLabel;html=1;align=center;verticalAlign=middle;resizable=0;points=[];" vertex="1" connectable="0" parent="d9xRhNfL5X-4K0_8_Pme-40">
          <mxGeometry x="-0.4206" y="1" relative="1" as="geometry">
            <mxPoint as="offset" />
          </mxGeometry>
        </mxCell>
        <mxCell id="d9xRhNfL5X-4K0_8_Pme-42" style="edgeStyle=orthogonalEdgeStyle;rounded=0;orthogonalLoop=1;jettySize=auto;html=1;entryX=0.5;entryY=0;entryDx=0;entryDy=0;" edge="1" parent="d9xRhNfL5X-4K0_8_Pme-1" source="d9xRhNfL5X-4K0_8_Pme-16" target="d9xRhNfL5X-4K0_8_Pme-26">
          <mxGeometry relative="1" as="geometry" />
        </mxCell>
      </root>
    </mxGraphModel>
  </diagram>
  <diagram id="AJjV4l45Sz5qe_2tUYuF" name="kelola perda">
    <mxGraphModel dx="1354" dy="692" grid="1" gridSize="10" guides="1" tooltips="1" connect="1" arrows="1" fold="1" page="1" pageScale="1" pageWidth="827" pageHeight="1169" math="0" shadow="0">
      <root>
        <mxCell id="0" />
        <mxCell id="1" parent="0" />
        <mxCell id="7i1GM5R556P8GDVj6Esj-1" value="&lt;font style=&quot;font-size: 9px;&quot;&gt;&lt;b style=&quot;mso-bidi-font-weight:normal&quot;&gt;&lt;i style=&quot;mso-bidi-font-style:normal&quot;&gt;&lt;span style=&quot;font-family: &amp;quot;Times New Roman&amp;quot;, serif;&quot;&gt;Activity Diagram &lt;/span&gt;&lt;/i&gt;&lt;span style=&quot;line-height: 150%; font-family: &amp;quot;Times New Roman&amp;quot;, serif;&quot;&gt;Mengelola&amp;nbsp; Kategori &lt;br&gt;&lt;/span&gt;&lt;/b&gt;&lt;/font&gt;" style="swimlane;html=1;childLayout=stackLayout;startSize=20;rounded=0;shadow=0;labelBackgroundColor=none;strokeWidth=1;fontFamily=Verdana;fontSize=8;align=center;" vertex="1" parent="1">
          <mxGeometry x="160" y="70" width="480" height="720" as="geometry" />
        </mxCell>
        <mxCell id="7i1GM5R556P8GDVj6Esj-2" value="Admin" style="swimlane;html=1;startSize=20;" vertex="1" parent="7i1GM5R556P8GDVj6Esj-1">
          <mxGeometry y="20" width="220" height="700" as="geometry" />
        </mxCell>
        <mxCell id="7i1GM5R556P8GDVj6Esj-3" value="&lt;font style=&quot;font-size: 10px;&quot;&gt;Pilih Menu Kategori &lt;br&gt;&lt;/font&gt;" style="rounded=1;whiteSpace=wrap;html=1;fontSize=10;" vertex="1" parent="7i1GM5R556P8GDVj6Esj-2">
          <mxGeometry x="60" y="110" width="100" height="30" as="geometry" />
        </mxCell>
        <mxCell id="7i1GM5R556P8GDVj6Esj-4" style="edgeStyle=orthogonalEdgeStyle;rounded=0;orthogonalLoop=1;jettySize=auto;html=1;" edge="1" parent="7i1GM5R556P8GDVj6Esj-2" source="7i1GM5R556P8GDVj6Esj-5">
          <mxGeometry relative="1" as="geometry">
            <mxPoint x="110" y="240" as="targetPoint" />
          </mxGeometry>
        </mxCell>
        <mxCell id="7i1GM5R556P8GDVj6Esj-5" value="&lt;div style=&quot;font-size: 10px;&quot;&gt;&lt;font style=&quot;font-size: 10px;&quot;&gt;Melihat halaman&lt;/font&gt;&lt;/div&gt;&lt;div style=&quot;font-size: 10px;&quot;&gt;Kategori&lt;br&gt;&lt;/div&gt;" style="rounded=1;whiteSpace=wrap;html=1;fontSize=10;" vertex="1" parent="7i1GM5R556P8GDVj6Esj-2">
          <mxGeometry x="60" y="180" width="100" height="30" as="geometry" />
        </mxCell>
        <mxCell id="7i1GM5R556P8GDVj6Esj-6" style="edgeStyle=orthogonalEdgeStyle;rounded=0;orthogonalLoop=1;jettySize=auto;html=1;" edge="1" parent="7i1GM5R556P8GDVj6Esj-2" source="7i1GM5R556P8GDVj6Esj-7" target="7i1GM5R556P8GDVj6Esj-12">
          <mxGeometry relative="1" as="geometry">
            <Array as="points">
              <mxPoint x="35" y="330" />
              <mxPoint x="36" y="330" />
            </Array>
          </mxGeometry>
        </mxCell>
        <mxCell id="7i1GM5R556P8GDVj6Esj-7" value="&lt;div style=&quot;font-size: 10px;&quot;&gt;&lt;font style=&quot;font-size: 10px;&quot;&gt;Klik tambah&lt;/font&gt;&lt;/div&gt;&lt;div style=&quot;font-size: 10px;&quot;&gt;Kategori&lt;font style=&quot;font-size: 10px;&quot;&gt;&lt;br style=&quot;font-size: 10px;&quot;&gt;&lt;/font&gt;&lt;/div&gt;" style="rounded=1;whiteSpace=wrap;html=1;fontSize=10;" vertex="1" parent="7i1GM5R556P8GDVj6Esj-2">
          <mxGeometry x="12.5" y="280" width="63.5" height="30" as="geometry" />
        </mxCell>
        <mxCell id="7i1GM5R556P8GDVj6Esj-8" style="edgeStyle=orthogonalEdgeStyle;rounded=0;orthogonalLoop=1;jettySize=auto;html=1;" edge="1" parent="7i1GM5R556P8GDVj6Esj-2" source="7i1GM5R556P8GDVj6Esj-9">
          <mxGeometry relative="1" as="geometry">
            <mxPoint x="113.125" y="290" as="targetPoint" />
          </mxGeometry>
        </mxCell>
        <mxCell id="7i1GM5R556P8GDVj6Esj-9" value="&lt;div style=&quot;font-size: 10px;&quot;&gt;&lt;font style=&quot;font-size: 10px;&quot;&gt;Klik hapus&lt;/font&gt;&lt;/div&gt;&lt;div style=&quot;font-size: 10px;&quot;&gt;Kategori&lt;font style=&quot;font-size: 10px;&quot;&gt;&lt;br style=&quot;font-size: 10px;&quot;&gt;&lt;/font&gt;&lt;/div&gt;" style="rounded=1;whiteSpace=wrap;html=1;fontSize=10;" vertex="1" parent="7i1GM5R556P8GDVj6Esj-2">
          <mxGeometry x="86.25" y="280" width="53.75" height="30" as="geometry" />
        </mxCell>
        <mxCell id="7i1GM5R556P8GDVj6Esj-10" value="&lt;div style=&quot;font-size: 10px;&quot;&gt;&lt;font style=&quot;font-size: 10px;&quot;&gt;Klik edit&lt;/font&gt;&lt;/div&gt;&lt;div style=&quot;font-size: 10px;&quot;&gt;Kategori&lt;font style=&quot;font-size: 10px;&quot;&gt;&lt;br style=&quot;font-size: 10px;&quot;&gt;&lt;/font&gt;&lt;/div&gt;" style="rounded=1;whiteSpace=wrap;html=1;fontSize=10;" vertex="1" parent="7i1GM5R556P8GDVj6Esj-2">
          <mxGeometry x="160" y="280" width="47.5" height="30" as="geometry" />
        </mxCell>
        <mxCell id="7i1GM5R556P8GDVj6Esj-11" style="edgeStyle=orthogonalEdgeStyle;rounded=0;orthogonalLoop=1;jettySize=auto;html=1;entryX=0.5;entryY=0;entryDx=0;entryDy=0;" edge="1" parent="7i1GM5R556P8GDVj6Esj-2" source="7i1GM5R556P8GDVj6Esj-12" target="7i1GM5R556P8GDVj6Esj-15">
          <mxGeometry relative="1" as="geometry">
            <Array as="points">
              <mxPoint x="41" y="400" />
              <mxPoint x="41" y="400" />
            </Array>
          </mxGeometry>
        </mxCell>
        <mxCell id="7i1GM5R556P8GDVj6Esj-12" value="&lt;div style=&quot;font-size: 10px;&quot;&gt;&lt;font style=&quot;font-size: 10px;&quot;&gt;Input tambah&lt;/font&gt;&lt;/div&gt;&lt;div style=&quot;font-size: 10px;&quot;&gt;Kategori&lt;font style=&quot;font-size: 10px;&quot;&gt;&lt;br style=&quot;font-size: 10px;&quot;&gt;&lt;/font&gt;&lt;/div&gt;" style="rounded=1;whiteSpace=wrap;html=1;fontSize=10;" vertex="1" parent="7i1GM5R556P8GDVj6Esj-2">
          <mxGeometry x="12.5" y="350" width="67.5" height="30" as="geometry" />
        </mxCell>
        <mxCell id="7i1GM5R556P8GDVj6Esj-13" style="edgeStyle=orthogonalEdgeStyle;rounded=0;orthogonalLoop=1;jettySize=auto;html=1;entryX=0.5;entryY=0;entryDx=0;entryDy=0;fontSize=10;" edge="1" parent="7i1GM5R556P8GDVj6Esj-2" source="7i1GM5R556P8GDVj6Esj-14" target="7i1GM5R556P8GDVj6Esj-16">
          <mxGeometry relative="1" as="geometry" />
        </mxCell>
        <mxCell id="7i1GM5R556P8GDVj6Esj-14" value="&lt;div style=&quot;font-size: 10px;&quot;&gt;&lt;font style=&quot;font-size: 10px;&quot;&gt;Input edit&lt;/font&gt;&lt;/div&gt;&lt;div style=&quot;font-size: 10px;&quot;&gt;Kategori&lt;font style=&quot;font-size: 10px;&quot;&gt;&lt;br style=&quot;font-size: 10px;&quot;&gt;&lt;/font&gt;&lt;/div&gt;" style="rounded=1;whiteSpace=wrap;html=1;fontSize=10;" vertex="1" parent="7i1GM5R556P8GDVj6Esj-2">
          <mxGeometry x="160" y="350" width="47.5" height="30" as="geometry" />
        </mxCell>
        <mxCell id="7i1GM5R556P8GDVj6Esj-15" value="Klik create" style="rounded=1;whiteSpace=wrap;html=1;fontSize=10;" vertex="1" parent="7i1GM5R556P8GDVj6Esj-2">
          <mxGeometry x="12.5" y="410" width="57.5" height="20" as="geometry" />
        </mxCell>
        <mxCell id="7i1GM5R556P8GDVj6Esj-16" value="Klik save" style="rounded=1;whiteSpace=wrap;html=1;fontSize=10;" vertex="1" parent="7i1GM5R556P8GDVj6Esj-2">
          <mxGeometry x="160" y="410" width="47.5" height="20" as="geometry" />
        </mxCell>
        <mxCell id="7i1GM5R556P8GDVj6Esj-17" value="" style="ellipse;html=1;shape=startState;fillColor=#000000;strokeColor=#ff0000;" vertex="1" parent="7i1GM5R556P8GDVj6Esj-2">
          <mxGeometry x="95" y="30" width="30" height="30" as="geometry" />
        </mxCell>
        <mxCell id="7i1GM5R556P8GDVj6Esj-18" value="" style="edgeStyle=orthogonalEdgeStyle;html=1;verticalAlign=bottom;endArrow=open;endSize=8;strokeColor=#ff0000;rounded=0;" edge="1" parent="7i1GM5R556P8GDVj6Esj-2" source="7i1GM5R556P8GDVj6Esj-17">
          <mxGeometry relative="1" as="geometry">
            <mxPoint x="110" y="110" as="targetPoint" />
          </mxGeometry>
        </mxCell>
        <mxCell id="7i1GM5R556P8GDVj6Esj-19" value="" style="shape=line;html=1;strokeWidth=6;strokeColor=#ff0000;" vertex="1" parent="7i1GM5R556P8GDVj6Esj-2">
          <mxGeometry x="13.129999999999995" y="240" width="200" height="10" as="geometry" />
        </mxCell>
        <mxCell id="7i1GM5R556P8GDVj6Esj-20" value="" style="edgeStyle=orthogonalEdgeStyle;html=1;verticalAlign=bottom;endArrow=open;endSize=8;strokeColor=#ff0000;rounded=0;" edge="1" parent="7i1GM5R556P8GDVj6Esj-2" source="7i1GM5R556P8GDVj6Esj-19">
          <mxGeometry relative="1" as="geometry">
            <mxPoint x="113" y="280" as="targetPoint" />
          </mxGeometry>
        </mxCell>
        <mxCell id="7i1GM5R556P8GDVj6Esj-21" value="" style="edgeStyle=orthogonalEdgeStyle;html=1;verticalAlign=bottom;endArrow=open;endSize=8;strokeColor=#ff0000;rounded=0;" edge="1" parent="7i1GM5R556P8GDVj6Esj-2">
          <mxGeometry relative="1" as="geometry">
            <mxPoint x="190" y="280" as="targetPoint" />
            <mxPoint x="190" y="250" as="sourcePoint" />
          </mxGeometry>
        </mxCell>
        <mxCell id="7i1GM5R556P8GDVj6Esj-22" value="" style="edgeStyle=orthogonalEdgeStyle;html=1;verticalAlign=bottom;endArrow=open;endSize=8;strokeColor=#ff0000;rounded=0;exitX=0.135;exitY=0.722;exitDx=0;exitDy=0;exitPerimeter=0;entryX=0.48;entryY=-0.077;entryDx=0;entryDy=0;entryPerimeter=0;" edge="1" parent="7i1GM5R556P8GDVj6Esj-2" source="7i1GM5R556P8GDVj6Esj-19" target="7i1GM5R556P8GDVj6Esj-7">
          <mxGeometry relative="1" as="geometry">
            <mxPoint x="133" y="300" as="targetPoint" />
            <mxPoint x="133" y="270" as="sourcePoint" />
          </mxGeometry>
        </mxCell>
        <mxCell id="7i1GM5R556P8GDVj6Esj-23" value="Sistem" style="swimlane;html=1;startSize=20;" vertex="1" parent="7i1GM5R556P8GDVj6Esj-1">
          <mxGeometry x="220" y="20" width="260" height="700" as="geometry" />
        </mxCell>
        <mxCell id="7i1GM5R556P8GDVj6Esj-24" value="&lt;font style=&quot;font-size: 10px;&quot;&gt;Menampilkan halaman Kategori&lt;br&gt;&lt;/font&gt;" style="rounded=1;whiteSpace=wrap;html=1;fontSize=10;" vertex="1" parent="7i1GM5R556P8GDVj6Esj-23">
          <mxGeometry x="90" y="110" width="120" height="30" as="geometry" />
        </mxCell>
        <mxCell id="7i1GM5R556P8GDVj6Esj-25" style="edgeStyle=orthogonalEdgeStyle;rounded=0;orthogonalLoop=1;jettySize=auto;html=1;" edge="1" parent="7i1GM5R556P8GDVj6Esj-23" source="7i1GM5R556P8GDVj6Esj-26" target="7i1GM5R556P8GDVj6Esj-31">
          <mxGeometry relative="1" as="geometry" />
        </mxCell>
        <mxCell id="7i1GM5R556P8GDVj6Esj-26" value="&lt;font style=&quot;font-size: 10px;&quot;&gt;Menyimpan kategori&lt;/font&gt;" style="rounded=1;whiteSpace=wrap;html=1;fontSize=10;" vertex="1" parent="7i1GM5R556P8GDVj6Esj-23">
          <mxGeometry x="50" y="520" width="90" height="30" as="geometry" />
        </mxCell>
        <mxCell id="7i1GM5R556P8GDVj6Esj-27" value="&lt;div style=&quot;font-size: 10px;&quot;&gt;Menampilkan&lt;/div&gt;&lt;div style=&quot;font-size: 10px;&quot;&gt;halaman edit Kategori&lt;br style=&quot;font-size: 10px;&quot;&gt;&lt;/div&gt;" style="rounded=1;whiteSpace=wrap;html=1;fontSize=10;" vertex="1" parent="7i1GM5R556P8GDVj6Esj-23">
          <mxGeometry x="30" y="320" width="120" height="30" as="geometry" />
        </mxCell>
        <mxCell id="7i1GM5R556P8GDVj6Esj-28" style="edgeStyle=orthogonalEdgeStyle;rounded=0;orthogonalLoop=1;jettySize=auto;html=1;entryX=0.887;entryY=0.31;entryDx=0;entryDy=0;entryPerimeter=0;" edge="1" parent="7i1GM5R556P8GDVj6Esj-23" source="7i1GM5R556P8GDVj6Esj-30" target="7i1GM5R556P8GDVj6Esj-31">
          <mxGeometry relative="1" as="geometry">
            <mxPoint x="204" y="570" as="targetPoint" />
          </mxGeometry>
        </mxCell>
        <mxCell id="7i1GM5R556P8GDVj6Esj-29" value="Ya" style="edgeLabel;html=1;align=center;verticalAlign=middle;resizable=0;points=[];" vertex="1" connectable="0" parent="7i1GM5R556P8GDVj6Esj-28">
          <mxGeometry x="-0.4462" relative="1" as="geometry">
            <mxPoint as="offset" />
          </mxGeometry>
        </mxCell>
        <mxCell id="7i1GM5R556P8GDVj6Esj-30" value="Pilihan" style="rhombus;whiteSpace=wrap;html=1;" vertex="1" parent="7i1GM5R556P8GDVj6Esj-23">
          <mxGeometry x="170" y="420" width="70" height="70" as="geometry" />
        </mxCell>
        <mxCell id="7i1GM5R556P8GDVj6Esj-31" value="" style="shape=line;html=1;strokeWidth=6;strokeColor=#ff0000;" vertex="1" parent="7i1GM5R556P8GDVj6Esj-23">
          <mxGeometry x="30" y="580" width="200" height="10" as="geometry" />
        </mxCell>
        <mxCell id="7i1GM5R556P8GDVj6Esj-32" value="" style="edgeStyle=orthogonalEdgeStyle;html=1;verticalAlign=bottom;endArrow=open;endSize=8;strokeColor=#ff0000;rounded=0;" edge="1" parent="7i1GM5R556P8GDVj6Esj-23" source="7i1GM5R556P8GDVj6Esj-31">
          <mxGeometry relative="1" as="geometry">
            <mxPoint x="130" y="640" as="targetPoint" />
          </mxGeometry>
        </mxCell>
        <mxCell id="7i1GM5R556P8GDVj6Esj-33" value="" style="ellipse;html=1;shape=endState;fillColor=#000000;strokeColor=#ff0000;" vertex="1" parent="7i1GM5R556P8GDVj6Esj-23">
          <mxGeometry x="115" y="640" width="30" height="30" as="geometry" />
        </mxCell>
        <mxCell id="7i1GM5R556P8GDVj6Esj-34" style="edgeStyle=orthogonalEdgeStyle;rounded=0;orthogonalLoop=1;jettySize=auto;html=1;entryX=0;entryY=0.5;entryDx=0;entryDy=0;" edge="1" parent="7i1GM5R556P8GDVj6Esj-1" source="7i1GM5R556P8GDVj6Esj-3" target="7i1GM5R556P8GDVj6Esj-24">
          <mxGeometry relative="1" as="geometry" />
        </mxCell>
        <mxCell id="7i1GM5R556P8GDVj6Esj-35" style="edgeStyle=orthogonalEdgeStyle;rounded=0;orthogonalLoop=1;jettySize=auto;html=1;entryX=0.504;entryY=0.071;entryDx=0;entryDy=0;entryPerimeter=0;" edge="1" parent="7i1GM5R556P8GDVj6Esj-1" source="7i1GM5R556P8GDVj6Esj-24" target="7i1GM5R556P8GDVj6Esj-5">
          <mxGeometry relative="1" as="geometry">
            <Array as="points">
              <mxPoint x="380" y="180" />
              <mxPoint x="110" y="180" />
              <mxPoint x="110" y="190" />
              <mxPoint x="110" y="190" />
            </Array>
          </mxGeometry>
        </mxCell>
        <mxCell id="7i1GM5R556P8GDVj6Esj-36" style="edgeStyle=orthogonalEdgeStyle;rounded=0;orthogonalLoop=1;jettySize=auto;html=1;entryX=0.011;entryY=0.526;entryDx=0;entryDy=0;entryPerimeter=0;" edge="1" parent="7i1GM5R556P8GDVj6Esj-1" source="7i1GM5R556P8GDVj6Esj-15" target="7i1GM5R556P8GDVj6Esj-26">
          <mxGeometry relative="1" as="geometry">
            <Array as="points">
              <mxPoint x="41" y="555" />
              <mxPoint x="250" y="555" />
            </Array>
          </mxGeometry>
        </mxCell>
        <mxCell id="7i1GM5R556P8GDVj6Esj-37" style="edgeStyle=orthogonalEdgeStyle;rounded=0;orthogonalLoop=1;jettySize=auto;html=1;entryX=0.5;entryY=0;entryDx=0;entryDy=0;" edge="1" parent="7i1GM5R556P8GDVj6Esj-1" source="7i1GM5R556P8GDVj6Esj-10" target="7i1GM5R556P8GDVj6Esj-27">
          <mxGeometry relative="1" as="geometry">
            <mxPoint x="380" y="315" as="targetPoint" />
          </mxGeometry>
        </mxCell>
        <mxCell id="7i1GM5R556P8GDVj6Esj-38" style="edgeStyle=orthogonalEdgeStyle;rounded=0;orthogonalLoop=1;jettySize=auto;html=1;entryX=0.973;entryY=0.613;entryDx=0;entryDy=0;entryPerimeter=0;" edge="1" parent="7i1GM5R556P8GDVj6Esj-1" source="7i1GM5R556P8GDVj6Esj-27" target="7i1GM5R556P8GDVj6Esj-14">
          <mxGeometry relative="1" as="geometry">
            <Array as="points">
              <mxPoint x="300" y="388" />
            </Array>
          </mxGeometry>
        </mxCell>
        <mxCell id="7i1GM5R556P8GDVj6Esj-39" style="edgeStyle=orthogonalEdgeStyle;rounded=0;orthogonalLoop=1;jettySize=auto;html=1;" edge="1" parent="7i1GM5R556P8GDVj6Esj-1" source="7i1GM5R556P8GDVj6Esj-9">
          <mxGeometry relative="1" as="geometry">
            <mxPoint x="390" y="480" as="targetPoint" />
            <Array as="points">
              <mxPoint x="110" y="480" />
            </Array>
          </mxGeometry>
        </mxCell>
        <mxCell id="7i1GM5R556P8GDVj6Esj-40" style="edgeStyle=orthogonalEdgeStyle;rounded=0;orthogonalLoop=1;jettySize=auto;html=1;entryX=1;entryY=0.5;entryDx=0;entryDy=0;" edge="1" parent="7i1GM5R556P8GDVj6Esj-1" source="7i1GM5R556P8GDVj6Esj-30" target="7i1GM5R556P8GDVj6Esj-5">
          <mxGeometry relative="1" as="geometry">
            <Array as="points">
              <mxPoint x="425" y="215" />
            </Array>
          </mxGeometry>
        </mxCell>
        <mxCell id="7i1GM5R556P8GDVj6Esj-41" value="Tidak" style="edgeLabel;html=1;align=center;verticalAlign=middle;resizable=0;points=[];" vertex="1" connectable="0" parent="7i1GM5R556P8GDVj6Esj-40">
          <mxGeometry x="-0.4206" y="1" relative="1" as="geometry">
            <mxPoint as="offset" />
          </mxGeometry>
        </mxCell>
        <mxCell id="7i1GM5R556P8GDVj6Esj-42" style="edgeStyle=orthogonalEdgeStyle;rounded=0;orthogonalLoop=1;jettySize=auto;html=1;entryX=0.5;entryY=0;entryDx=0;entryDy=0;" edge="1" parent="7i1GM5R556P8GDVj6Esj-1" source="7i1GM5R556P8GDVj6Esj-16" target="7i1GM5R556P8GDVj6Esj-26">
          <mxGeometry relative="1" as="geometry" />
        </mxCell>
      </root>
    </mxGraphModel>
  </diagram>
</mxfile>
